<?xml version="1.0" encoding="UTF-8" standalone="no"?>
<svg
   xmlns:dc="http://purl.org/dc/elements/1.1/"
   xmlns:cc="http://creativecommons.org/ns#"
   xmlns:rdf="http://www.w3.org/1999/02/22-rdf-syntax-ns#"
   xmlns:svg="http://www.w3.org/2000/svg"
   xmlns="http://www.w3.org/2000/svg"
   width="650.27557"
   height="450"
   viewBox="0 0 172.05207 119.0625"
   version="1.1"
   id="svg8">
  <defs
     id="defs2" />
  <metadata
     id="metadata5">
    <rdf:RDF>
      <cc:Work
         rdf:about="">
        <dc:format>image/svg+xml</dc:format>
        <dc:type
           rdf:resource="http://purl.org/dc/dcmitype/StillImage" />
        <dc:title></dc:title>
      </cc:Work>
    </rdf:RDF>
  </metadata>
  <g
     id="g935"
     transform="matrix(0.81558265,0,0,0.81558265,34.092341,-43.309983)">
    <path
       name="Alcobaça"
       d="m 38.422049,169.58578 c 1.240129,-1.32925 2.860351,-0.86991 4.574929,-1.26976 0.905511,-1.99814 1.027978,-4.51113 2.588857,-6.4464 1.089176,-2.23652 3.224843,-4.14462 3.07633,-6.71356 -0.249932,-2.08235 0.331896,-4.0264 0.898753,-6.0059 0.244862,-2.28977 1.231493,-4.27995 2.302577,-6.29862 1.842419,-1.61877 0.439885,-3.93371 -1.501394,-4.19798 -0.909195,0.90887 -1.880996,1.84697 -2.379521,0.22175 -1.532651,-2.04303 -2.301358,-4.66818 -3.283483,-7.02466 -0.861654,-2.30565 4.048623,-1.69276 2.612439,-4.2401 0.69709,-1.98047 -1.467205,-3.42745 -2.927933,-4.23769 -0.662479,-1.88151 0.348275,-3.43763 0.428902,-5.28439 -1.70782,-1.23729 -1.315664,-4.0401 -3.840528,-3.86711 -1.820127,-1.11295 -2.204844,4.16846 -4.515306,1.72992 -1.7859,-1.22229 -3.222552,-2.85688 -4.883425,-4.22668 -0.454269,1.44332 -1.119885,2.8512 -1.469906,4.31146 -0.107566,0.84821 0.234826,1.85734 -0.164259,2.6013 -0.599645,0.56849 -1.010953,1.23311 -1.084841,2.07123 -0.501855,1.93752 -1.003712,3.87504 -1.505569,5.81257 1.084574,0.83558 2.118697,1.70249 3.187122,2.51919 1.983251,-0.99048 3.972494,-2.13651 6.366465,-2.06647 1.114776,-0.29947 1.903171,1.06332 2.9617,1.05693 -1.034571,1.38923 -1.549569,3.12376 -1.710753,4.72124 -1.126815,-0.0882 -2.152938,-0.54252 -1.430834,1.09978 1.044521,1.73734 1.363136,4.49405 -0.698686,5.55676 -1.800065,-1.17016 -4.00378,-0.78786 -6.05775,-0.58793 -1.885307,-0.23782 -2.399964,0.98318 -1.316488,2.38212 -1.81989,2.24371 0.565026,4.82958 -0.559531,7.1469 -1.403604,1.67295 -4.306629,-0.43212 -3.47733,-2.37087 -0.988489,-0.57896 -1.113758,-3.4387 -2.456687,-2.40404 -1.31042,1.34563 -2.706388,2.6475 -3.969739,4.01688 0.06641,0.8379 0.153981,1.67487 0.228413,2.5124 -1.579954,-0.15252 -0.163742,1.84137 -0.168506,2.61153 0.986441,0.85804 2.734789,0.49676 2.636851,2.49593 -0.0082,1.59256 0.382798,2.1638 1.987748,2.18014 2.263834,0.65264 2.827557,-2.80366 4.925509,-2.5937 2.105711,-0.0941 3.859761,1.35392 5.828426,1.87051 0.86902,2.18229 5.02795,0.58192 4.26762,3.48909 0.196876,2.33085 -2.06581,3.71588 -3.591491,4.03283 0.948218,1.45582 3.157684,2.73427 3.633236,3.41062 -0.196171,-0.82197 0.422591,1.76869 0.488083,1.98485 z"
       id="path4"
       style="stroke-width:2.34655" />
    <path
       name="Ansião"
       d="m 94.211318,78.40347 c 0.960655,-0.783279 1.664832,-1.901622 2.179032,-3.037353 -0.316362,-1.157273 0.05468,-2.806875 1.573879,-2.315906 1.098163,-0.386595 2.305911,-0.397717 2.833091,-1.699678 0.8961,-0.704435 1.97739,-0.995384 2.96613,-1.587208 0.57162,-0.626037 0.49125,-1.885924 0.73912,-2.359411 1.08202,0.181858 1.309,1.448832 2.25431,1.954584 0.0568,1.034172 2.71224,0.385139 1.63456,-0.0718 -1.01679,-0.01173 -1.72068,-2.661365 -0.15863,-2.730119 0.64218,0.438453 1.40613,0.91776 1.50754,1.641296 0.62473,0.308783 0.0443,1.142067 0.85628,1.063199 0.20791,1.337089 1.26585,2.603218 0.97572,4.011008 -0.60517,1.022933 1.08695,1.049566 0.86694,2.157514 0.78752,0.711639 1.20195,1.753461 1.4802,2.644798 -0.83791,0.148772 -1.45139,0.714643 -1.1465,1.704489 0.4141,1.472649 -1.86014,1.280748 -1.99037,1.98171 1.2643,-0.102779 2.48469,0.386805 3.7298,0.08518 1.13589,-0.192418 2.62126,-0.760518 2.64344,-2.125108 0.81218,0.06875 1.1924,-1.914153 1.39218,-0.263424 0.21166,1.277346 0.62618,2.475495 0.7475,3.786795 0.37826,1.619332 -1.98157,1.571486 -2.90466,2.29765 -0.82298,1.008947 2.62743,2.1948 0.88129,2.686849 -0.69157,0.792641 -1.66985,1.768666 -1.83634,2.838318 -0.005,0.8774 1.25309,2.836301 -0.37171,2.691214 -1.0648,-0.08565 -2.1065,-2.04272 -2.69737,-0.340203 -0.55242,0.366508 -1.34152,-0.07697 -1.75465,0.749747 -1.39536,0.06828 -2.09655,-1.258714 -2.97836,-2.039389 -1.06095,-0.848302 -2.10728,-0.02487 -2.84834,0.673367 -1.03157,-0.707485 -3.10153,0.396121 -3.13868,-1.438108 0.71938,-1.160135 0.68343,-2.55394 0.9347,-3.867141 -1.25273,0.456334 -2.22138,-0.429161 -3.212334,-1.076434 -1.617337,-0.362448 -1.215701,-2.340615 -2.471365,-3.032214 -1.5705,-1.074322 -1.117052,-3.137387 -2.248794,-4.429586 -0.134458,-0.193356 -0.272036,-0.386266 -0.437656,-0.554655 z"
       id="path6"
       style="stroke-width:2.34655" />
    <path
       name="Batalha"
       d="m 52.189267,126.62983 c 0.305286,1.27115 1.727789,1.18867 2.744363,1.45089 1.154996,0.40035 2.608333,0.48781 3.622325,1.12367 1.227223,0.54056 2.43436,1.47033 3.788391,1.80253 1.006952,-0.86214 2.331088,-0.74958 2.956819,0.52129 1.133009,0.34154 1.697097,1.94487 3.119201,1.47563 1.39763,1.76709 1.662204,4.23576 3.356344,5.79518 0.251668,0.56876 -0.520489,1.05295 0.299232,1.46186 1.048792,1.11811 2.196162,2.16296 3.52485,2.94032 0.567208,-0.57282 2.161174,-1.43353 1.522255,-2.23361 -0.834997,-0.9199 -1.452117,-2.05539 -1.52899,-3.30057 0.101371,-1.31723 -0.341024,-2.56231 0.05045,-3.86134 0.124602,-1.14322 -0.880004,-1.90024 -1.388689,-2.81286 -0.476773,-0.95113 -0.154169,-2.11976 -0.871791,-2.88872 -0.79757,-1.3928 -1.290252,-3.03095 -2.541926,-4.10865 -1.181841,-0.009 -2.190084,-0.5234 -3.262224,-0.73736 -0.966333,-0.71133 -2.32684,-0.52732 -3.326307,-0.28928 -0.896899,0.61646 -2.055603,-0.18655 -2.983172,-0.0605 -1.2444,-0.70739 -0.977761,-2.90792 -2.221903,-3.24927 -0.885237,0.36564 -1.96404,-0.28476 -2.309805,0.99984 -0.797264,1.02108 -2.18464,1.46099 -3.234815,2.03746 -0.568124,0.93203 -1.413751,1.68959 -0.631809,2.80486 0.247561,0.64725 -0.602618,0.62583 -0.682706,1.12867 z"
       id="path8"
       style="stroke-width:2.34655" />
    <path
       name="Bombarral"
       d="m 24.144919,179.10577 c 0.889796,0.71417 0.645778,1.64395 0.454754,2.5858 0.563877,0.63925 0.680327,1.7288 0.692712,2.34273 -0.806836,-0.10512 -0.74874,0.99243 -1.677679,0.69104 -1.193679,0.38504 -0.834563,2.04809 -1.966873,2.60066 -0.930741,0.43702 -1.083182,1.36388 -1.073292,2.24943 -0.526939,1.05106 -1.088356,2.04344 -1.690162,3.07173 -0.297569,0.71795 -0.980688,2.45034 -1.835433,1.33026 -0.938379,0.20227 -0.781557,1.87973 -1.872535,1.56189 -1.126875,0.0361 -1.29188,1.2191 -1.654333,2.04945 -0.967183,-0.25962 -1.43085,-1.5789 -1.233106,-2.4605 -0.451077,-0.81808 -1.237017,-1.45946 -1.428923,-2.43511 -0.581544,-0.92933 0.142389,-1.53497 0.452361,-2.32785 -0.600368,-1.01542 0.458153,-1.79868 1.040428,-2.4437 -0.438199,-1.03023 -1.307681,-1.91181 -1.328458,-3.15639 -0.05949,-1.02993 -0.177516,-2.26553 -1.4684133,-2.33583 -0.5716999,-0.13634 -1.1646501,0.62589 -1.610265,-0.16121 -0.6068699,0.0664 -1.6898975,0.15933 -1.9224079,-0.58739 0.2809175,-0.84706 0.5135781,-1.43384 1.4085037,-1.65563 0.5544151,-0.34823 1.3882647,-0.0504 1.8908398,-0.63697 0.7973137,-0.50432 1.2486547,-1.49572 2.3412297,-1.49666 0.786485,-0.41752 1.397243,-1.27978 2.21156,-0.32162 0.858556,0.47889 0.918771,1.58041 1.5367,2.15149 0.747501,0.40288 1.647465,1.73102 2.412159,1.12606 -0.687007,-0.82826 0.202836,-1.83303 0.903104,-1.93783 0.429829,-0.21401 0.974295,-0.0141 1.380678,-0.4836 0.283109,0.86433 1.273859,0.28257 1.712497,1.07247 0.606028,0.46621 0.783526,-0.91068 1.594499,-0.48243 0.2407,0.0467 0.483591,0.0922 0.729855,0.0896 z"
       id="path10"
       style="stroke-width:2.34655" />
    <path
       name="Caldas da Rainha"
       d="m 38.187394,168.41722 c -0.374181,-1.25744 -1.057685,-1.88172 -2.169833,-2.25273 -0.396755,-0.77939 -2.665514,-2.42772 -0.820078,-2.29294 1.262661,-0.11803 2.486435,-1.81794 2.756828,-3.25117 0.155342,-1.27734 -0.01877,-2.65592 -1.712302,-2.46423 -1.80077,-0.0246 -2.543344,-1.94705 -4.358197,-2.16408 -1.630967,-0.67809 -3.368677,-1.6848 -5.104586,-0.89545 -1.15123,0.27875 -1.901866,2.53796 -3.551089,2.49436 -0.861839,-0.73801 -2.617485,0.096 -2.153121,-1.57953 -0.244304,-1.47068 -0.68795,-3.10606 -2.488898,-2.8825 -0.619483,-0.78305 -0.797382,-1.89632 -0.960833,-2.90245 -0.660447,0.0936 -1.388195,0.16332 -2.044586,0.30453 -1.682436,1.57247 -3.401712,3.12007 -5.062294,4.70718 -0.6592075,1.44027 -1.2465049,2.92822 -1.9505455,4.33878 -0.7997213,0.84997 -1.5994427,1.69994 -2.3991663,2.54988 0.8379912,0.54459 1.7875633,0.89082 2.617696,1.43346 0.3614464,1.19517 0.8621771,2.24044 1.5957328,3.19375 1.628319,-0.42172 3.211995,0.17881 4.861114,0.73473 1.360588,0.38772 2.54259,1.19616 3.932805,1.49508 1.165668,0.56878 2.670048,0.65795 3.863877,0.86558 0.824705,1.40018 0.459058,3.16061 2.086474,3.98592 1.31215,0.95481 3.099063,1.76827 2.587562,3.78109 -0.941819,1.15279 -3.572628,-0.0788 -3.372483,1.73769 1.059855,0.99602 -0.255007,2.42793 0.800247,3.44251 -0.242244,2.01062 2.020301,0.19336 2.693839,-0.6143 1.007088,-1.32444 3.028058,-0.81876 3.617238,0.63563 0.612278,1.27953 1.595289,1.61912 2.860777,1.52317 1.986232,1.16999 2.831202,-1.07488 3.257852,-2.54138 1.005216,-1.6156 -0.879159,-2.61089 -0.820542,-4.20732 -0.494372,-1.50168 -1.03903,-3.06674 -0.114043,-4.53176 0.444508,-1.58019 1.800064,-2.90463 1.550578,-4.6435 z"
       id="path12"
       style="stroke-width:2.34655" />
    <path
       name="Castanheira de Pera"
       d="m 138.95305,56.39279 c 0.85658,0.466658 1.99367,0.616744 2.41002,1.607998 0.75524,0.231604 1.24231,0.962156 2.08672,1.061721 0.34525,0.760634 0.17177,2.061281 -0.54517,2.556849 -0.22457,1.189562 -0.59478,2.367671 -0.80083,3.571382 -0.4198,0.617706 -1.58695,-0.155811 -2.21606,-0.342526 0.40954,0.99062 0.29712,1.999802 -0.23492,2.924109 -0.74092,0.984495 1.40261,2.028359 0.50878,2.728805 -0.79471,0.531846 -1.6362,1.254443 -1.77592,2.243726 -0.49219,0.728299 -0.52412,1.541896 -0.56455,2.351597 -0.12672,1.043113 -1.06968,1.522091 -1.97019,1.74736 -0.73213,0.160269 0.1666,1.257071 -0.58005,1.712091 -0.55568,0.836311 -2.72472,0.473112 -2.07775,-0.712929 -0.0967,-1.087745 -2.6027,-0.173176 -1.64895,-1.324066 0.58751,-0.580983 0.94907,-1.468284 0.52383,-2.247574 -0.36295,-0.773588 -0.18538,-1.674547 -0.28046,-2.512148 -0.0164,-0.867122 0.0263,-1.725655 0.2411,-2.577148 0.39188,-0.841544 -0.1537,-1.641342 0.23532,-2.4475 0.53236,-1.226074 1.61184,-2.111193 2.07095,-3.377064 0.24889,-0.768026 0.41186,-1.332583 1.01924,-1.831765 0.2936,-1.152721 1.24534,-1.961671 1.95018,-2.883303 0.5249,-0.766712 0.93242,-1.628202 1.64871,-2.249615 z"
       id="path14"
       style="stroke-width:2.34655" />
    <path
       name="Figueiró dos Vinhos"
       d="m 131.26337,77.129316 c -1.95334,0.573919 -1.89763,2.680466 -1.39854,4.155016 -1.13728,1.459133 -0.65253,3.173899 -0.40574,4.792644 1.09103,1.119798 2.13721,2.457403 3.1711,3.787593 0.89901,1.223375 1.31963,3.141986 0.3751,4.38831 -0.17857,2.03791 -2.4797,1.109872 -3.57988,2.121189 -1.20526,-0.204384 -3.47233,-0.570423 -2.47784,1.402065 0.10419,0.887935 1.73877,2.011934 -0.0744,2.038544 -0.94771,0.297543 -0.67002,1.691883 -1.89855,1.788373 -0.663,0.95522 2.18642,2.27839 0.22996,1.97207 -1.76653,1.08059 -3.26478,-0.71206 -4.94583,-0.65485 -2.12633,0.62777 -0.14337,-2.15203 -0.76497,-3.186643 0.60217,-1.54314 0.9805,-3.40358 0.69847,-4.911451 0.83394,-0.915953 1.09631,-2.290211 2.48814,-2.481736 -0.002,-1.728166 2.36519,-4.545225 0.21729,-5.589816 -1.34107,0.382019 -2.42356,1.192964 -3.73165,0.499652 -0.95441,1.753062 -2.59688,-0.511032 -2.88926,-1.605934 1.04715,-0.8598 3.74172,-0.821105 2.9514,-2.797746 0.15018,-1.622054 -1.66342,-3.704009 -0.20321,-4.810174 1.58509,-0.868177 1.36661,-2.963789 2.81443,-3.694505 -0.49857,-0.678505 0.0211,-2.559454 0.78961,-1.795018 -0.0969,1.532251 0.52148,2.745724 2.17024,2.877834 0.65806,1.009159 2.64071,2.092163 1.79063,0.259858 0.36094,-0.826996 1.70317,-0.914475 0.33947,-1.699678 -0.38666,-0.766243 2.04777,-2.151483 -0.11357,-2.115698 -1.22542,-0.498338 -2.47855,-2.361664 -2.30833,-3.648185 1.0945,-1.031849 1.58158,-2.412044 1.80258,-3.664962 0.78374,-1.211548 1.49461,-2.836277 3.29601,-2.298447 0.80151,-1.343167 1.31433,-3.312604 3.14126,-1.77268 1.20629,0.960984 2.72397,1.936563 1.28035,3.504529 -0.75871,1.385169 -2.33963,2.681029 -1.84317,4.371861 -0.45242,1.700827 -0.44101,3.439763 -0.32575,5.174475 0.78964,1.384114 0.16707,2.422181 -0.59523,3.59351 z m -10.71043,27.809664 c -0.0188,0.001 0.009,-0.0753 0,0 z"
       id="path16"
       style="stroke-width:2.34655" />
    <path
       name="Leiria"
       d="m 47.557173,128.96697 c 1.944189,0.10888 2.584305,-1.80337 4.075679,-1.76977 1.995954,-1.14591 0.164728,-3.11075 1.870155,-4.50092 2.346552,-0.38634 3.204053,-3.35458 5.544621,-3.03733 1.380265,0.70608 1.30114,4.02579 3.720693,3.44476 1.857812,-0.0683 3.799044,-0.76474 5.566021,0.38251 2.428845,-0.0479 3.967784,1.7533 4.723937,4.00517 0.838705,2.73967 3.592196,-0.80262 5.346666,-0.60656 1.678465,-1.26862 3.160594,-3.04153 3.005135,-5.29481 2.371402,-2.31246 -1.224384,-2.63283 -2.807321,-3.55883 -2.234598,-0.1314 -2.137615,-3.34364 -0.141966,-2.90329 -0.669331,-0.96777 -1.888857,-1.30431 -1.65033,-2.67125 -1.086829,-1.21687 0.05679,-3.2293 0.007,-4.39793 0.584456,-1.26962 2.607418,-1.39899 3.895089,-2.4635 0.921444,-0.51988 2.401625,-0.99705 2.791223,-1.28514 0.255962,-1.99133 -2.576256,-2.48647 -3.457151,-4.09733 -2.239268,-0.297969 -3.916888,-3.751812 -6.528553,-2.613664 -1.595703,1.773899 -3.460085,-1.683839 -3.807398,-3.2167 -0.42949,-1.680179 -2.524303,-2.493517 -2.532657,-4.497331 -0.210721,-2.504968 -1.826861,-3.639901 -3.662264,-5.046026 -1.780634,-1.151148 -3.887415,-1.583312 -5.615416,-2.936193 -1.968194,-0.391921 -4.149783,-2.191609 -5.482108,-2.309617 -1.645895,-1.788284 -4.140726,-2.501824 -6.407542,-3.403721 -1.079859,-0.561154 -1.052639,0.864048 -1.448432,1.530257 -1.636673,3.804136 -2.916295,7.740172 -4.2898,11.642957 1.572985,0.418531 3.916158,0.149475 4.693125,-1.398545 2.377831,-0.601679 3.791347,1.108957 5.230957,2.262475 -1.375643,0.831102 -2.670705,2.819476 -4.551255,2.113844 0.868154,2.081415 1.341336,4.223301 3.48463,5.396295 0.78823,2.455129 -0.274429,4.874679 1.062213,7.308709 0.610573,1.59596 4.237005,1.30379 2.406812,3.70964 -1.337535,1.12715 0.01877,2.89035 -0.440401,3.82228 -1.758107,-0.56217 -2.071161,3.68366 -3.751362,1.68848 -1.448316,0.0988 -0.485079,2.95326 -2.379404,2.12441 1.764607,2.79481 -3.260534,3.20954 -1.659458,5.91835 -0.364983,1.94689 2.9663,2.09005 3.112091,4.22793 0.01408,0.87449 -0.422849,1.56644 0.0772,2.43039 z"
       id="path18"
       style="stroke-width:2.34655" />
    <path
       name="Marinha Grande"
       d="m 44.83752,119.53386 c 1.593919,-0.18351 1.676071,-1.96766 1.189702,-3.14438 1.716315,0.71515 1.081291,-1.58583 2.121001,-2.09937 0.781237,0.60762 1.789011,0.73116 2.195246,-0.46211 0.475482,-0.82629 1.101401,-1.49827 2.1,-1.34788 -0.54677,-1.3851 -0.656659,-2.72803 0.282947,-3.98529 0.867731,-1.27157 -0.07227,-2.14707 -1.347484,-2.34033 -1.511179,-0.40077 -1.391458,-2.1883 -1.886088,-3.37507 -0.603744,-1.23462 0.726258,-2.47913 -0.165901,-3.743527 -0.2615,-0.921937 -0.271567,-1.779695 -1.329369,-2.262897 -1.492055,-0.5769 -0.909875,-2.313654 -1.963008,-3.306175 -0.580044,-0.71896 -0.433948,-1.437286 0.554303,-0.990902 1.369917,0.002 2.103613,-1.493627 3.347919,-1.900284 0.907506,-1.180386 -2.048798,-1.003926 -1.798444,-2.293356 -1.395635,-0.446502 -3.074124,-0.778844 -3.87587,0.578824 -1.226918,0.553481 -2.672089,0.944135 -3.990521,0.500754 -1.141714,3.228879 -2.256303,6.467966 -3.570255,9.632244 -0.652576,1.564489 -1.195873,3.181999 -1.917682,4.712929 -0.846652,1.48326 -1.742202,2.95462 -2.560747,4.44447 -0.0033,0.73611 0.223649,1.50442 -0.157478,2.18496 -0.164446,0.46296 -0.328871,0.92588 -0.493308,1.38881 1.902225,1.54401 3.483954,3.51807 5.675657,4.67931 1.645848,0.60745 1.934614,-1.63597 2.85275,-2.43591 1.060289,0.10982 2.14423,0.57237 3.079237,1.10358 -0.30409,1.50006 1.662954,2.40738 1.485789,3.5628 -0.130468,0.31234 0.16379,0.59266 0.171533,0.8988 z"
       id="path20"
       style="stroke-width:2.34655" />
    <path
       name="Nazaré"
       d="m 22.542228,143.18707 c 1.461379,-2.02038 2.922758,-4.04076 4.384138,-6.06112 -0.126197,-0.78844 -0.252395,-1.57688 -0.37859,-2.36532 -0.398815,-0.0946 -0.842475,-0.10043 -1.218642,-0.24094 -0.03283,-0.41929 0.209383,-0.8347 0.270584,-1.25194 0.582747,-2.24888 1.165494,-4.49777 1.748239,-6.74666 0.719556,0.49163 1.32189,1.12667 2.022726,1.63712 0.68971,0.40011 1.223335,1.29389 2.086206,0.60508 0.869787,-0.71847 1.8106,-1.27803 2.926087,-1.4696 1.029198,-0.13164 2.055064,-0.17951 3.069431,-0.41217 0.690027,-0.0432 0.949039,1.29565 1.904673,0.90075 1.222553,0.0737 -0.22128,1.47668 -0.536234,1.95444 -0.634414,0.8533 -0.252701,2.05893 -0.556438,2.94208 -0.55794,0.49787 -2.224086,-0.85991 -1.630783,0.52934 0.177868,0.89577 0.575116,1.66617 0.861208,2.53803 -0.198519,0.83657 0.49599,1.85943 -0.432939,2.43966 -0.07603,1.44947 -1.652231,1.3549 -2.386953,0.55313 -1.034268,0.14901 -1.977683,-0.4783 -2.979365,-0.10043 -0.972641,0.34264 -1.981722,0.0871 -2.969576,0.34689 -1.551054,0.11662 -0.174677,1.4584 -0.07727,2.21721 -0.652391,0.84788 -0.669333,1.92638 -0.776503,2.90902 0.421568,1.01711 0.524462,2.02463 0.551412,3.11437 0.07272,0.97163 -0.875597,2.14188 -1.911942,1.73426 -0.612507,-0.47083 -1.80456,-0.64833 -1.921789,-1.4599 0.312443,-0.98009 -0.03062,-1.79629 -0.785255,-2.43143 0.02858,-0.78499 -0.3042,-1.32531 -0.962551,-1.64737 -0.09994,-0.0781 -0.199996,-0.15652 -0.299882,-0.23466 z"
       id="path22"
       style="stroke-width:2.34655" />
    <path
       name="Óbidos"
       d="m -0.44460579,168.08636 c 1.35589871,-1.09901 2.76719249,-2.13768 4.08832229,-3.27457 0.8416894,-0.89469 1.6833788,-1.78938 2.5250682,-2.6841 0.7771217,0.47957 1.601991,0.86564 2.4149867,1.27385 0.7964291,0.54783 0.2022494,1.79119 1.2417202,2.19121 -0.2311823,1.40298 1.3202574,1.27286 2.0558404,0.88627 0.953997,0.75392 2.233715,0.21917 3.226302,0.95336 1.123435,0.42648 2.212672,0.83842 3.298224,1.35471 1.314278,0.13399 2.339409,1.04274 3.726104,0.8903 1.249682,-0.30876 1.479639,1.34399 1.576566,2.26189 0.0052,1.16474 1.423245,1.77543 2.178337,2.40691 0.82173,0.7355 2.090149,1.08631 1.82432,2.48509 0.299091,1.67227 -2.018014,1.27582 -2.909603,1.53866 -0.468674,1.35417 -2.148815,0.0293 -2.634405,1.27237 -0.626882,-0.42837 -1.147685,-0.70967 -1.846333,-0.83533 -0.242448,-0.83518 -0.942983,0.36001 -1.535612,0.009 -0.496326,0.31939 -1.604882,0.80653 -1.099873,1.78746 0.397961,0.87383 -1.472222,0.15722 -1.639149,-0.4806 -1.374223,-0.53217 -1.233061,-2.42795 -2.745888,-2.92037 -0.901681,-0.27166 -1.628474,1.06258 -2.701834,1.00277 -0.7442675,0.7359 -1.5150183,1.75032 -2.6704042,1.6279 -1.0523604,0.22738 -1.7860076,0.87421 -1.926681,2.03239 -1.3183891,0.22011 -2.256632,-0.76002 -2.6832891,-1.85802 -0.4487265,-1.17436 -0.600661,-2.38975 -0.8736424,-3.60787 -0.2943914,-1.29961 -0.2956656,-2.6639 -1.0106341,-3.83654 -0.45717873,-1.22427 -1.08336784,-2.34662 -1.45362088,-3.59346 -0.14161441,-0.29487 -0.28317485,-0.58983 -0.42482211,-0.88463 z"
       id="path24"
       style="stroke-width:2.34655" />
    <path
       name="Peniche"
       d="m -6.9116958,184.55913 c -0.8563999,-1.9773 -1.7509126,-3.94256 -2.5835677,-5.92737 0.00399,-0.86503 -0.010325,-1.73076 -0.013375,-2.59608 -0.6325275,-0.59577 -1.2650575,-1.19153 -1.8975865,-1.7873 -1.158849,-0.18702 -2.33424,-0.33103 -3.483055,-0.5444 -0.102521,-0.2901 0.193356,-0.57234 0.24597,-0.85539 0.18695,-0.41745 0.314548,-0.88831 0.535432,-1.27607 1.005849,-0.1347 2.019684,-0.32144 3.020805,-0.42473 0.431735,0.66816 0.874222,1.33092 1.3101626,1.99696 1.0168196,-0.27102 2.0511093,-0.50157 3.0570855,-0.79768 1.5443644,-0.99633 3.1221272,-1.94562 4.6454688,-2.97156 0.5432244,-0.42998 1.0864512,-0.85999 1.62967562,-1.28997 0.21693873,0.47198 0.50062512,0.91795 0.55089295,1.44285 0.3977077,0.80071 0.82397528,1.54126 1.01993113,2.41476 0.3160219,0.73248 0.8405114,1.40864 0.8813274,2.23169 0.2781461,0.74311 0.2230163,1.56518 0.4625851,2.33346 0.2511585,0.74555 0.2089135,1.54908 0.4764064,2.27946 0.3350172,0.88449 0.799726,1.89602 -0.4083118,2.24835 -0.6953091,0.31618 -1.5002328,0.72703 -1.2914459,1.58322 -0.39000636,0.75022 -1.42072929,0.57739 -1.4177609,1.57634 -0.50317347,0.69545 -1.158014,1.82015 -1.9620647,0.88226 -0.7315563,-0.31455 -1.5886508,-0.0723 -2.2226117,-0.66933 -0.6662307,-0.0547 -1.3243517,-0.005 -1.9866636,0.0624 -0.1897891,0.0293 -0.3795923,0.0587 -0.5693908,0.088 z"
       id="path26"
       style="stroke-width:2.34655" />
    <path
       name="Pombal"
       d="m 45.229394,76.052248 c 1.696064,-4.185873 3.374459,-8.38423 4.754114,-12.687031 1.89538,0.158861 2.765036,1.885243 3.605876,3.181947 2.114642,0.07814 3.523582,-0.996299 5.408638,0.35494 1.637799,2.115675 3.614957,0.475388 3.842924,-1.75691 1.644182,-2.250696 4.638101,-1.054424 6.657262,0.127887 1.671027,-0.624465 4.137511,0.782997 5.634071,0.48414 2.622577,-0.958425 3.560494,1.684848 5.625459,2.532728 2.241239,-0.01643 -1.357949,4.481773 1.937478,3.356343 2.495957,0.724756 3.024494,-2.390878 3.998618,-4.003382 0.670011,-2.430675 3.820163,-2.604133 5.689403,-1.423277 1.312896,2.316281 0.103483,5.252733 0.972834,7.653185 -2.420211,2.399208 1.249937,4.342552 2.012262,6.451164 0.362354,2.371331 2.434805,3.89063 3.482306,5.812784 1.238461,0.58225 2.250511,1.902092 3.730031,1.358185 0.058,2.779443 -1.71066,4.945639 -1.65251,7.439719 1.45101,1.779907 0.0805,2.996523 -1.611167,3.896567 -0.804492,0.997918 -0.964832,2.576823 -1.874191,0.683339 -1.657276,-1.827682 -1.8232,1.911434 -3.355194,2.425114 -0.783349,2.725 -3.721655,2.12271 -5.183134,4.08985 -1.388572,1.41547 -3.344329,0.35602 -3.91433,-1.11301 -2.33076,0.72478 -0.719594,-2.37392 -2.756542,-2.6272 -2.056518,-1.93237 -4.264717,-3.218909 -6.699875,-4.730323 -1.916593,-0.60879 -3.504622,1.824233 -4.859239,-0.884251 -0.481372,-2.311049 -2.02254,-3.722664 -3.151302,-5.598381 -0.567608,-2.407022 -1.146291,-4.702583 -3.547682,-5.830008 -1.637987,-1.561794 -4.027715,-1.655187 -5.751328,-3.174345 -2.02261,-0.544517 -4.409101,-2.256444 -5.807294,-2.480282 -1.650048,-1.789081 -4.148539,-2.509449 -6.421714,-3.406137 -0.255235,-0.04435 -0.510587,-0.0887 -0.765774,-0.133284 z"
       id="path28"
       style="stroke-width:2.34655" />
    <path
       name="Porto de Mós"
       d="m 75.600815,143.20115 c -0.172237,1.11926 -1.246817,1.73239 -1.423184,2.86507 -0.644902,0.52624 -1.454158,0.8389 -1.805671,1.76625 -1.275867,-0.27421 -1.916828,-1.55754 -3.065066,-2.06278 -1.458594,0.59532 -1.340679,2.58414 -0.759063,3.85546 0.584573,1.37005 1.193621,2.66859 1.697895,4.10017 0.04857,1.43039 -2.432436,-0.0444 -3.209074,1.14697 -1.319443,0.2639 -2.829355,-0.60301 -4.279032,-0.90426 -1.393171,0.15041 -2.728077,0.49183 -4.135985,0.74615 -1.807056,0.40962 -3.776376,1.03521 -5.52728,0.13657 -1.219198,-0.69739 -1.723542,0.86367 -2.683,1.08556 -0.116858,1.21136 -2.64271,1.05743 -1.813767,-0.44899 0.160738,-1.93611 -0.09832,-3.87856 0.829811,-5.70026 0.222218,-1.17673 0.53912,-2.36587 0.758757,-3.5609 0.432493,-1.01218 1.08643,-1.99973 1.519205,-3.04683 0.504978,-1.21234 2.038872,-2.72338 0.227381,-3.62873 -0.707415,-1.19637 -1.973333,-1.00869 -2.718199,0.14079 -0.943783,0.5942 -1.055479,-1.11787 -1.897516,-1.57369 -0.611206,-1.14903 -0.897227,-2.42814 -1.527089,-3.5982 -0.535506,-1.22004 -1.514464,-2.5749 -1.042948,-3.9316 1.554848,-0.70709 2.928051,-1.75468 4.627846,-2.0977 0.913888,-0.25026 0.82371,-1.68013 1.773101,-0.99311 0.829178,-0.57195 1.098726,-1.1672 1.6527,0.0408 1.376136,0.52833 2.870209,0.60895 4.274972,1.12921 1.35748,0.25504 2.342493,1.08835 3.624531,1.63848 1.123083,1.42909 2.413171,-0.15675 3.616436,0.21541 1.0024,0.99752 2.051942,1.81438 3.203817,2.52398 1.557454,-0.39566 1.75677,1.76336 2.389283,2.75335 0.378757,1.29426 1.419687,2.31557 1.963947,3.42803 -0.525511,1.27352 1.79009,2.28256 2.600049,3.22449 0.362449,0.26922 0.738977,0.51971 1.127049,0.75021 z"
       id="path30"
       style="stroke-width:2.34655" />
  </g>
</svg>
