<?xml version="1.0" encoding="UTF-8" standalone="no"?>
<svg
   xmlns:dc="http://purl.org/dc/elements/1.1/"
   xmlns:cc="http://creativecommons.org/ns#"
   xmlns:rdf="http://www.w3.org/1999/02/22-rdf-syntax-ns#"
   xmlns:svg="http://www.w3.org/2000/svg"
   xmlns="http://www.w3.org/2000/svg"
   baseprofile="tiny"
   fill="#7c7c7c"
   height="800"
   stroke="#ffffff"
   stroke-linecap="round"
   stroke-linejoin="round"
   stroke-width="2"
   version="1.2"
   viewbox="0 0 1000 597"
   width="400"
   id="svg25">
  <metadata
     id="metadata31">
    <rdf:RDF>
      <cc:Work
         rdf:about="">
        <dc:format>image/svg+xml</dc:format>
        <dc:type
           rdf:resource="http://purl.org/dc/dcmitype/StillImage" />
        <dc:title></dc:title>
      </cc:Work>
    </rdf:RDF>
  </metadata>
  <defs
     id="defs29" />
  <g
     id="g927"
     transform="matrix(1.8193326,0,0,1.8193326,-11.083688,-10.715767)">
    <g
       id="g991"
       transform="translate(-655.29583,163.25728)">
      <g
         id="g1011"
         transform="matrix(1.5770966,0,0,1.5770966,-698.51922,-150.1787)">
        <path
           d="m 894.4,192.8 -0.2,0.5 -0.4,-0.3 0.1,-0.4 h 0.3 z m 11.5,-14.5 1.6,0.3 0.3,0.2 0.1,0.5 -0.5,0.8 0.1,0.3 -0.1,0.7 -0.3,0.5 -0.7,0.7 -3.3,2.4 -1.4,1.8 v 0.9 l 0.2,0.3 0.1,0.4 0.2,1.3 1.2,0.1 1.5,0.9 1.2,0.2 1,0.3 0.2,-0.1 0.1,-0.3 -0.2,-0.6 0.2,-0.1 h 0.3 l 0.3,0.2 0.1,0.3 0.6,0.5 0.5,0.1 h 1.2 l 0.5,-0.2 1,-0.6 0.7,-0.2 0.3,0.2 0.8,1 0.5,0.5 0.2,0.3 0.1,0.5 0.5,1.4 v 0.3 l -0.1,0.2 v 0.3 l 0.2,0.3 0.5,0.2 0.3,0.2 0.2,0.4 -0.1,0.9 -0.7,1.2 v 0.4 l 0.3,0.1 0.8,0.3 0.6,0.5 0.8,0.5 0.8,0.2 0.3,-0.1 0.8,0.3 1.5,1.2 0.9,2.1 0.3,1.3 v 0.8 l -0.2,0.6 -1.4,0.4 -0.7,0.3 -1.4,0.4 -0.3,0.1 -0.1,0.6 -0.3,0.4 -1.4,-0.1 -0.3,0.3 -0.2,0.3 v 0.4 l -0.3,0.9 -0.2,0.1 -0.4,-0.1 -0.2,-0.2 -0.4,-0.2 -0.3,0.1 -0.3,0.2 -0.2,0.1 -0.1,0.3 -0.1,0.7 -0.2,0.5 -0.2,0.3 -0.2,0.1 -0.5,-0.2 h -0.2 l -0.3,0.4 -0.4,1.3 0.1,0.6 0.2,0.5 0.8,0.6 0.6,0.7 0.5,0.3 0.5,0.1 h 0.5 l 0.5,0.4 0.3,0.5 0.3,1.1 0.1,1.5 -0.3,2.2 -0.5,1.4 -0.1,0.3 -0.6,1.4 -1.1,-0.6 -0.2,-0.1 h -1.1 l -1.7,-0.3 -3.6,0.7 -0.6,0.3 -0.4,0.4 -0.3,0.7 -0.7,0.7 -0.2,0.4 -0.4,1.1 -0.1,0.8 -0.2,0.3 -0.7,0.3 -0.4,-0.1 -0.7,-0.3 -0.6,-0.4 h -0.3 l -0.3,0.1 -0.3,0.5 h -0.2 l -0.2,-0.2 -0.4,-0.7 -1,-1.3 -0.4,-0.6 -0.7,-0.3 -0.6,0.3 -0.3,0.2 h -0.3 l -0.2,-0.2 -0.2,-0.3 -0.4,-0.4 0.2,-0.9 -0.1,-1.7 -0.2,-1.2 -0.7,-1.3 -1.3,-0.2 -1.6,-1 0.2,-0.5 0.6,-0.3 0.3,-0.3 2,-4.5 0.8,-3.6 0.9,-2.7 -0.2,-2.7 -0.3,-3.2 -0.3,-2.8 -1.1,-2 -1,-1.1 -1.2,-1.5 -1.5,-1.2 -1.1,-0.4 0.6,-0.7 0.9,0.4 1.5,1.3 1.8,0.6 0.9,0.5 v 0.7 l 1.7,-0.1 4,1.1 2,-0.6 -1.2,-0.1 -1.1,-0.2 -2.9,-1.4 -0.3,-0.5 -0.3,-0.7 v -0.7 -0.6 l 0.2,-0.5 0.4,-0.2 v -0.4 l -0.6,-0.2 -0.4,-0.6 -0.1,-0.7 0.3,-0.6 -0.7,-0.1 -0.7,1.6 -0.8,0.3 v 0.3 l 0.8,0.1 0.5,0.7 v 0.9 l -0.4,0.4 -0.9,-0.1 -0.8,-0.2 -1.4,-0.8 -1.5,-0.5 -2,0.4 -1.8,2 0.3,0.3 -2.2,0.9 -3.9,0.5 -0.8,0.3 -0.6,0.5 -0.8,0.2 -1,-0.3 h -0.2 l -0.1,-0.3 v -0.4 l 0.1,-0.3 0.5,-0.6 1.2,-1.2 0.2,-1.6 v -2.4 l -1,-2.3 -1.2,-2 -0.5,-1.5 0.7,-0.4 1.8,-0.2 1.7,-0.2 0.9,0.5 0.4,0.6 h 0.2 l -0.2,-1 0.6,-0.3 1.2,-0.4 h 0.6 v -0.4 l 0.6,-0.7 0.7,-0.6 1.1,-0.9 1.4,-1.2 0.4,-0.4 h 0.2 l 0.4,-0.2 0.4,0.1 -0.1,0.6 0.2,0.8 0.4,0.3 0.3,0.2 0.5,-0.1 0.8,-0.3 0.4,-0.3 0.7,-0.1 h 0.4 l 0.3,0.2 0.4,0.5 1.1,0.4 h 0.3 l 0.7,-0.2 0.6,-0.8 0.1,-0.4 0.5,-1.4 1.1,-2.3 0.3,-0.1 1,0.6 1.1,0.4 0.7,-0.4 0.7,-0.3 0.2,0.1 -0.1,1.4 v 0.4 0.5 l 0.5,0.5 0.5,0.1 h 0.3 z"
           id="PRT5498"
           name="Setúbal" />
        <path
           d="m 913.7,95.4 -0.4,0.4 v 0.4 l -0.4,0.6 H 912 l -0.3,0.1 -0.3,0.4 -0.2,0.4 -0.9,1.1 -0.2,0.5 -0.7,0.6 -2.3,-0.2 -0.3,-0.4 V 99 98.5 l 0.1,-0.5 0.3,-0.8 0.2,-0.3 0.5,-0.5 0.1,-0.1 0.2,-0.8 v -0.3 -0.4 l -0.5,-0.9 -0.2,-1 h -0.4 l -0.7,0.3 -0.6,0.4 -0.4,0.2 -0.3,-0.1 -0.3,-0.4 -0.1,-0.9 v -0.5 l 0.2,-1.3 -1.5,-1.1 -0.9,1.4 -0.1,0.8 -0.3,0.6 -1.4,-0.2 -4.4,-4.5 v -0.1 l 0.1,-0.7 0.7,-2.4 0.5,-3.1 0.4,-0.3 v 1.1 0.4 l 0.8,-1.4 0.5,-0.5 0.6,0.4 h 0.2 v -0.3 l -0.2,-0.5 -0.1,-0.3 0.1,-0.3 0.4,-0.2 0.2,0.1 0.2,0.3 0.2,0.1 0.4,-0.1 0.3,-0.4 0.5,-0.9 -0.7,-0.4 -0.3,-0.6 0.1,-0.6 0.7,-0.2 1,-0.1 0.7,-0.3 0.6,-0.4 0.6,-0.6 h -0.7 l -1,0.5 -1.2,0.3 -0.9,-0.4 -0.3,-0.4 -0.3,-1.5 1.5,-2.1 -0.4,-1.1 v 0.8 l -0.3,0.8 -0.3,0.2 -0.2,-0.7 -0.5,1 -0.5,1.4 -0.2,1.5 -0.1,1.3 -0.2,0.8 -0.4,1.2 -0.6,1.2 -0.5,0.6 3.8,-18 v -1.2 l 0.4,-0.1 1.8,-0.2 0.6,0.4 1.3,-0.4 0.6,-0.5 h 0.5 l 0.3,0.2 0.4,0.3 0.5,0.3 h 0.4 l 0.3,-0.2 0.3,-0.7 0.2,-0.3 0.7,-0.8 0.8,0.8 0.5,0.9 0.7,0.6 h 0.3 l 0.1,-0.2 V 61.2 L 912,60.9 v -0.6 l 1,-0.5 0.8,0.3 2,-1.4 0.1,-0.1 0.2,-0.6 2.4,1.6 0.2,0.8 v 0.4 1.1 l 3,1.5 h 0.4 l 0.6,-0.1 0.3,-0.7 0.2,-0.3 0.5,-0.4 h 0.3 l 0.1,0.2 v 0.4 0.3 l -1.3,1.8 -0.2,0.6 -0.1,0.6 v 0.3 l 0.2,0.7 0.2,1.4 0.3,1 v 0.6 l -0.2,0.3 -0.3,0.1 h -0.4 l -0.6,-0.4 -0.4,-0.1 h -0.4 l -0.7,0.3 -0.5,0.1 h -0.5 l -0.3,-0.2 -1.2,0.1 0.4,1.7 V 72 l -0.4,0.6 -0.8,1.7 -0.9,1 -1,0.8 -0.3,0.7 v 0.4 0.4 l 0.2,0.3 0.6,0.6 0.2,0.4 0.1,0.4 0.1,1.5 0.2,0.7 0.2,0.1 0.7,0.3 0.7,0.6 -1.6,0.6 -0.3,0.3 -0.2,0.4 v 0.3 l 0.5,1.2 0.2,0.9 0.2,0.4 0.6,0.5 0.4,0.8 -2.2,0.9 -0.9,0.7 v 0.3 0.4 l 0.4,0.7 v 0.7 l -0.2,0.4 -1.1,1.8 z"
           id="PRT739"
           name="Aveiro" />
        <path
           d="m 922.6,118.9 -0.8,1.5 -0.4,0.4 -0.4,0.2 -0.7,0.3 -0.3,0.4 -0.3,0.4 -0.3,0.3 -0.4,-0.1 -1.7,0.5 -0.5,0.6 v 0.5 l -0.2,0.2 -0.3,0.5 v 0.3 l 0.2,0.5 -1.7,-0.1 -0.3,-0.1 v 0.2 l 0.1,0.4 0.1,1 -0.2,0.1 -0.8,-0.1 -0.8,0.4 -0.5,0.1 -1.7,0.6 -0.7,0.3 -0.2,-0.6 v -0.4 l -0.3,-1.2 -0.1,-0.6 -0.5,-2.2 -0.6,0.2 -0.6,0.4 -0.3,0.1 -0.6,0.1 -1.9,1.5 -0.8,0.3 -0.4,0.1 -0.8,-0.2 -1.8,0.8 -0.4,0.8 v 0.4 l 0.1,1 v 0.6 l 0.1,0.4 0.6,0.5 0.3,0.4 0.2,0.8 -0.2,0.5 -0.3,0.3 -0.7,0.5 -0.8,0.7 0.3,1.6 0.1,0.9 0.5,1.4 -0.3,0.4 -1,1.4 h -0.3 l -0.4,0.1 -0.4,-0.2 h -0.3 l -0.1,0.2 -0.1,0.4 0.1,0.4 0.3,0.7 -0.1,0.6 -0.6,0.4 -1.9,-0.2 -2.6,0.2 -1.2,0.5 -0.5,0.6 -1.3,2.6 -0.4,0.5 -0.3,0.2 -0.8,0.2 -0.8,1.5 -0.2,0.6 0.2,1 0.1,1.6 -1.1,-0.2 -0.7,-0.4 -0.6,-0.1 -0.5,0.1 -0.6,0.4 -0.9,1 -0.9,1.6 -0.8,1 -0.8,0.6 -0.7,-0.6 -0.9,-3.1 -0.3,-0.6 -0.3,-0.4 -0.3,-0.2 -0.2,0.1 -0.5,-0.1 -0.3,0.2 -1.7,1 h -1.5 l -0.4,0.1 -0.3,-1.2 -0.4,-1.1 -1.5,-1.5 -0.3,-0.5 0.5,-0.1 1.8,0.5 2.9,-2 0.7,-0.6 0.8,-0.1 0.5,0.6 0.5,0.1 0.4,-0.5 -0.3,-0.6 -0.6,-0.7 0.6,-1 0.9,-1.1 0.3,-0.5 1.9,-1.3 0.6,-0.9 0.4,-0.8 0.8,-1.5 0.1,-0.9 -0.1,-1 0.5,-1.4 0.3,-1.9 3.1,-8.5 3.6,-10.6 1.3,0.6 0.3,0.2 0.6,0.3 1.3,0.3 0.4,-0.1 0.4,-0.3 1,-0.5 2,0.2 0.8,0.1 0.9,0.2 0.4,0.3 0.7,0.6 0.4,0.6 0.4,0.2 0.4,-0.1 0.3,-0.2 0.6,-1 0.6,-0.4 h 0.5 l 0.3,0.1 0.3,0.3 0.2,1.2 0.1,0.5 v 0.8 l 0.1,0.4 0.3,0.5 0.3,-0.3 0.7,-0.9 1.1,-0.6 1.3,-1.1 h 0.8 V 114 h 0.4 l 0.3,0.2 0.5,1.2 0.4,1 0.2,0.6 -0.1,0.5 -0.2,0.3 -0.5,0.4 0.6,0.1 1.6,-0.6 1.4,-1.6 0.4,-0.1 0.7,0.3 h 0.3 l 0.2,-0.3 0.1,-0.4 -0.1,-0.3 -0.7,-0.7 -0.1,-0.6 0.7,-1 1.7,-1.5 1.1,0.4 1.3,-1.6 0.7,0.5 0.4,0.7 -0.3,1.5 0.2,0.9 1.6,2.7 -0.4,0.3 -0.2,0.3 -0.2,0.5 0.2,0.5 z"
           id="PRT740"
           name="Leiria" />
        <path
           d="m 920.5,19.3 h -0.2 -0.5 l -3.8,2.1 -0.9,0.4 -3.5,0.1 -0.6,0.2 -0.6,0.2 -0.3,0.2 -0.7,0.6 -0.6,0.3 -0.7,-0.1 -0.5,0.2 -0.3,0.3 -0.2,0.8 -0.1,0.8 -0.2,0.8 -0.4,0.4 -0.2,0.6 0.1,0.6 -0.7,1.3 -0.6,-0.2 -0.4,-0.2 -0.8,-0.1 -1.2,-0.5 -0.3,-0.2 -0.7,0.6 -0.3,0.1 -2.1,0.1 -2.9,1.1 H 896 l -1,-0.1 V 29 l -0.4,-1 v -1.2 l 0.1,-0.6 0.9,-0.3 2.4,-0.5 0.7,-0.3 0.7,-0.5 0.5,-0.5 -4.4,1.3 -0.9,0.2 -0.5,-0.1 -0.8,-0.5 -0.7,-1.7 v -1.5 l 0.3,-2.4 -0.3,-1.5 0.2,-0.6 0.3,-0.5 2.8,-2.4 1.4,-1.5 0.4,-2 0.5,-0.3 0.9,-0.5 1,-0.3 0.8,-0.5 0.3,-0.6 0.4,-1.1 0.4,-0.6 0.7,-0.5 0.7,-0.1 1.4,-0.1 0.7,-0.3 1.4,-0.9 0.8,-0.3 6.1,-1 0.7,-0.4 1,-0.9 0.4,-0.2 0.3,-0.1 h 0.6 l 0.8,-0.3 1.2,-0.9 0.3,0.5 0.4,0.8 -0.1,2.3 0.1,0.9 0.5,0.4 0.6,-0.2 0.7,-0.3 0.8,-0.1 0.8,0.4 0.6,0.6 0.3,0.7 -0.1,1 -0.4,0.7 -0.6,0.5 -1.2,0.7 -1.1,1.2 -1.6,2.3 -0.4,0.9 v 1 l 0.4,1 1.5,0.6 0.3,0.4 V 18 Z"
           id="PRT741"
           name="Viana do Castelo" />
        <path
           d="m 962.7,208 0.6,0.5 h 0.6 l 1,-0.2 1,-0.4 0.5,-0.7 0.3,0.1 1,-0.4 1.1,-0.1 0.7,0.5 -0.4,1.5 -0.3,0.7 -0.6,1.7 -0.7,1.5 -0.4,1.6 -0.3,0.6 -0.4,1.2 -1,0.2 -2.2,-1 h -0.7 l -0.4,0.3 -0.3,1.1 -0.5,0.5 -0.3,0.2 -0.5,0.2 -0.5,0.2 h -0.5 l -0.5,-0.2 h -0.5 l -0.4,0.3 -1.3,0.2 -0.3,0.3 0.1,0.4 0.1,0.5 v 0.5 l -0.2,0.9 -0.9,2.4 -0.4,1.7 -1.1,2 -3.7,3.1 -0.7,1 -0.5,1.5 -0.4,2.4 -0.2,0.8 -0.2,0.4 -1.1,1.1 -0.4,0.3 0.1,0.3 -0.1,0.7 -0.6,0.7 v 0.5 l 0.3,0.1 0.2,0.6 0.1,0.7 -1,0.2 h -1.1 l -0.8,0.5 -0.8,0.7 -0.5,0.3 -0.3,0.1 -0.3,-0.1 -0.5,-0.1 -0.3,-0.1 -2,-0.1 -3.2,1.4 -1.2,0.8 h -0.2 l -0.7,0.4 -0.6,0.2 -0.1,0.3 -0.6,0.1 -0.6,0.5 -0.1,0.3 -0.2,0.3 -0.6,0.3 -1.1,0.2 h -0.5 l -1.3,0.2 -0.5,0.4 -0.2,0.3 v 0.3 l 0.4,0.7 v 0.2 l -0.3,0.1 -1.4,0.8 -0.9,0.7 -0.6,0.2 h -0.4 l -1.5,-0.1 h -0.8 l -1.3,-0.4 -2.8,-2.1 -0.6,-0.3 -0.5,-0.5 -0.1,-0.3 -0.1,-0.8 -0.3,-0.5 -1,-0.3 -0.7,0.1 -0.3,0.2 -0.4,-0.1 h -0.5 l -0.8,0.2 -1.6,0.6 -0.4,0.5 -0.1,0.3 -0.2,0.5 -1.3,0.6 -1.8,-0.3 -0.5,-0.2 -1.6,-1 h -0.4 l -1.6,0.2 -0.3,0.2 -0.4,0.5 -0.2,0.2 -0.4,-0.1 -0.2,-0.2 -1.1,-0.5 H 899 l -0.3,-0.2 -0.7,-0.8 -0.7,-0.5 -0.6,-0.2 -0.8,-0.5 -0.4,-0.3 0.4,-2 0.1,-2.3 -0.3,-1.2 -0.4,-0.8 -0.5,-0.6 -0.1,-0.7 0.6,-2.2 0.1,-1.4 0.4,-1.3 0.5,-0.2 1.2,-0.2 0.2,-1.2 -0.4,0.1 -0.9,0.2 -1,0.1 -0.3,-0.9 0.3,-2.6 0.3,-1.8 0.4,0.4 0.2,0.3 0.2,0.2 h 0.3 l 0.3,-0.2 0.6,-0.3 0.7,0.3 0.4,0.6 1,1.3 0.4,0.7 0.2,0.2 h 0.2 l 0.3,-0.5 0.3,-0.1 h 0.3 l 0.6,0.4 0.7,0.3 0.4,0.1 0.7,-0.3 0.2,-0.3 0.1,-0.8 0.4,-1.1 0.2,-0.4 0.7,-0.7 0.3,-0.7 0.4,-0.4 0.6,-0.3 3.6,-0.7 1.7,0.3 h 1.1 l 0.2,0.1 1.1,0.6 0.6,-1.4 0.1,-0.3 0.5,-1.4 0.3,-2.2 -0.1,-1.5 -0.3,-1.1 -0.3,-0.5 -0.5,-0.4 h -0.5 l -0.5,-0.1 -0.5,-0.3 -0.6,-0.7 -0.8,-0.6 -0.2,-0.5 -0.1,-0.6 0.4,-1.3 0.3,-0.4 h 0.2 l 0.5,0.2 0.2,-0.1 0.2,-0.3 0.2,-0.5 0.1,-0.7 0.1,-0.3 0.2,-0.1 0.3,-0.2 0.3,-0.1 0.4,0.2 0.2,0.2 0.4,0.1 0.2,-0.1 0.3,-0.9 v -0.4 l 0.2,-0.3 0.3,-0.3 1.4,0.1 0.3,-0.4 0.1,-0.6 0.3,-0.1 1.4,-0.4 0.7,-0.3 1.4,-0.4 0.2,-0.6 v -0.8 l -0.3,-1.3 -0.9,-2.1 0.1,-0.5 3,0.1 0.8,-0.1 0.6,0.1 0.2,0.1 0.5,0.5 0.4,0.3 0.4,0.1 h 0.3 l 0.9,-0.5 0.8,0.2 1.1,0.5 0.9,1 3.4,1.6 2,0.2 1.1,0.4 2.5,1.4 0.6,0.2 h 2.6 l 0.7,0.2 0.9,0.3 h 1.8 l 0.5,-0.1 v -0.3 l 0.6,-0.9 0.6,-0.7 1.2,-0.5 v -0.2 l 0.7,-0.3 0.1,-0.3 0.4,-0.3 0.3,-0.4 0.2,-0.5 0.1,-0.7 1.2,-0.4 1.3,-0.7 0.6,-0.1 1,-0.4 h 0.6 l 0.2,0.6 0.5,0.7 0.1,0.4 0.2,0.7 0.2,0.4 0.8,0.8 1,0.5 0.2,0.2 0.2,0.7 0.5,1.1 0.1,0.3 0.3,0.7 0.4,0.4 0.4,0.3 0.6,0.1 0.4,-0.1 z"
           id="PRT743"
           name="Beja" />
        <path
           d="m 958.4,178.4 -1.8,1.4 -0.4,0.9 -0.1,0.4 -0.3,1.7 -0.1,1.2 0.1,0.9 0.2,0.3 0.5,0.3 0.1,0.4 -0.2,0.7 -1.6,2.5 -0.8,2.5 -0.4,0.6 0.5,0.7 v 0.6 l -0.4,0.5 -0.6,0.6 0.6,0.3 1.1,0.9 4.2,5.4 0.2,0.3 0.2,0.7 0.2,0.3 0.3,0.3 0.6,0.5 0.2,0.2 1.7,4.1 0.3,0.4 -0.4,0.3 -0.4,0.1 -0.6,-0.1 -0.4,-0.3 -0.4,-0.4 -0.3,-0.7 -0.1,-0.3 -0.5,-1.1 -0.2,-0.7 -0.2,-0.2 -1,-0.5 -0.8,-0.8 -0.2,-0.4 -0.2,-0.7 -0.1,-0.4 -0.5,-0.7 -0.2,-0.6 h -0.6 l -1,0.4 -0.6,0.1 -1.3,0.7 -1.2,0.4 -0.1,0.7 -0.2,0.5 -0.3,0.4 -0.4,0.3 -0.1,0.3 -0.7,0.3 v 0.2 l -1.2,0.5 -0.6,0.7 -0.6,0.9 v 0.3 l -0.5,0.1 H 945 l -0.9,-0.3 -0.7,-0.2 h -2.6 l -0.6,-0.2 -2.5,-1.4 -1.1,-0.4 -2,-0.2 -3.4,-1.6 -0.9,-1 -1.1,-0.5 -0.8,-0.2 -0.9,0.5 h -0.3 l -0.4,-0.1 -0.4,-0.3 -0.5,-0.5 -0.2,-0.1 -0.6,-0.1 -0.8,0.1 -3,-0.1 -0.1,0.5 -1.5,-1.2 -0.8,-0.3 -0.3,0.1 -0.8,-0.2 -0.8,-0.5 -0.6,-0.5 -0.8,-0.3 -0.3,-0.1 v -0.4 l 0.7,-1.2 0.1,-0.9 -0.2,-0.4 -0.3,-0.2 -0.5,-0.2 -0.2,-0.3 v -0.3 l 0.1,-0.2 v -0.3 l -0.5,-1.4 -0.1,-0.5 -0.2,-0.3 -0.5,-0.5 -0.8,-1 -0.3,-0.2 -0.7,0.2 -1,0.6 -0.5,0.2 h -1.2 l -0.5,-0.1 -0.6,-0.5 -0.1,-0.3 -0.3,-0.2 h -0.3 l -0.2,0.1 0.2,0.6 -0.1,0.3 -0.2,0.1 -1,-0.3 -1.2,-0.2 -1.5,-0.9 -1.2,-0.1 -0.2,-1.3 -0.1,-0.4 -0.2,-0.3 v -0.9 l 1.4,-1.8 3.3,-2.4 0.7,-0.7 0.3,-0.5 0.1,-0.7 -0.1,-0.3 0.5,-0.8 -0.1,-0.5 -0.3,-0.2 -1.6,-0.3 1.9,-1.6 1.7,-0.4 0.4,-0.3 0.9,-0.8 0.4,-0.1 h 0.4 l 0.5,-0.2 0.4,-0.4 0.2,-0.6 h 0.2 l 0.7,0.3 h 0.6 l 0.4,-0.2 0.6,0.1 0.3,-0.1 0.2,-0.5 h 0.3 l 0.2,0.2 1.1,1.1 0.4,0.3 1.2,0.2 0.4,0.2 0.3,0.3 0.3,0.8 h 0.4 l 0.2,0.1 0.3,0.6 0.1,0.3 0.7,0.3 0.7,-0.6 0.2,-0.7 -0.1,-0.5 -0.2,-0.3 -0.7,-0.2 -0.6,-0.7 -0.3,-0.4 v -0.4 l 0.2,-0.9 -0.2,-0.4 -0.1,-0.1 -0.5,-0.1 -2.1,-0.9 -0.6,-0.5 v -0.4 l 0.1,-0.3 0.5,-0.6 0.1,-0.5 0.1,-0.5 V 168 l 0.2,-0.4 0.1,-0.3 0.8,-0.1 0.2,-0.2 0.4,-0.7 0.8,-0.7 0.6,-0.2 0.3,-0.2 0.3,-0.1 1.1,-0.1 0.6,0.3 v 0.2 l -0.1,0.4 -0.1,0.6 0.1,0.7 0.3,0.3 0.2,-0.1 0.1,-0.3 v -0.3 l 0.2,-0.4 0.5,-0.2 0.6,-0.1 0.3,0.1 0.3,0.2 0.9,0.9 0.1,0.4 v 0.8 0.6 l 0.1,0.1 1,0.1 0.3,-0.1 0.6,-0.4 0.3,-0.3 0.6,-0.4 0.9,-0.2 0.4,0.4 1.8,2.4 1.1,0.8 0.5,0.1 0.7,-0.1 0.9,0.1 1.3,-0.5 0.3,-0.4 0.7,-0.8 h 0.3 l 0.6,0.4 0.3,0.1 0.4,-0.2 h 0.4 0.4 l 0.9,0.4 0.5,-0.2 0.2,-0.2 0.5,-0.7 0.5,-0.5 0.6,-0.2 0.8,-0.2 0.6,-0.2 0.4,-0.3 0.2,-0.3 v -0.4 l -0.5,-0.6 0.6,-0.4 h 0.3 l 0.2,0.5 1.6,0.6 0.7,0.7 0.2,0.5 0.1,0.8 0.1,0.3 v 0.6 l 0.9,0.8 0.3,1 0.1,0.7 0.6,0.8 -0.2,0.8 0.2,0.4 0.6,1 0.3,0.3 0.6,0.3 h 0.7 l 0.2,0.1 0.6,-0.2 0.8,-0.8 0.9,-0.8 1.1,-0.4 h 0.8 l 0.4,0.2 0.5,0.4 0.1,0.3 0.1,0.7 -0.1,0.3 -0.6,1 -0.1,0.2 v 0.5 z"
           id="PRT744"
           name="Évora" />
        <path
           d="m 933.2,268.4 -0.8,0.5 -1,0.3 -1.1,-0.1 -0.9,-0.3 v -0.4 l 2,0.3 0.8,-0.3 1,-1 0.2,0.7 z m -0.8,-0.6 -0.6,0.2 -0.4,-0.5 h 0.3 l 0.4,-0.1 z m -36.9,-22.8 0.4,0.3 0.8,0.5 0.6,0.2 0.7,0.5 0.7,0.8 0.3,0.2 h 1.6 l 1.1,0.5 0.2,0.2 0.4,0.1 0.2,-0.2 0.4,-0.5 0.3,-0.2 1.6,-0.2 h 0.4 l 1.6,1 0.5,0.2 1.8,0.3 1.3,-0.6 0.2,-0.5 0.1,-0.3 0.4,-0.5 1.6,-0.6 0.8,-0.2 h 0.5 l 0.4,0.1 0.3,-0.2 0.7,-0.1 1,0.3 0.3,0.5 0.1,0.8 0.1,0.3 0.5,0.5 0.6,0.3 2.8,2.1 1.3,0.4 h 0.8 l 1.5,0.1 h 0.4 l 0.6,-0.2 0.9,-0.7 1.4,-0.8 0.3,-0.1 v -0.2 l -0.4,-0.7 v -0.3 l 0.2,-0.3 0.5,-0.4 1.3,-0.2 h 0.5 l 1.1,-0.2 0.6,-0.3 0.2,-0.3 0.1,-0.3 0.6,-0.5 0.6,-0.1 0.1,-0.3 0.6,-0.2 0.7,-0.4 h 0.2 l 1.2,-0.8 3.2,-1.4 2,0.1 0.3,0.1 0.5,0.1 0.3,0.1 0.3,-0.1 0.5,-0.3 0.8,-0.7 0.8,-0.5 h 1.1 l 1,-0.2 0.4,0.5 0.3,0.4 0.6,0.5 0.3,0.3 0.2,1 0.3,1.2 0.1,1.1 -0.1,0.6 0.7,1.5 0.3,4 0.4,1.7 -0.3,0.7 0.2,1.1 0.6,2.2 0.3,0.7 0.3,0.1 v 0.3 l -0.3,0.3 -0.7,-0.5 -0.8,-0.2 h -0.9 l -0.9,0.1 -0.9,0.3 -1.6,1.1 -0.6,0.3 -2.4,1.5 -0.3,0.4 -6,4.1 -1.3,1.2 h -0.6 l -0.6,-0.3 -0.8,-0.1 -2.5,-0.1 -0.7,-0.2 -0.3,0.5 h -0.5 l -0.8,-0.5 0.3,0.6 0.2,0.3 v 0.4 l -0.9,-1.3 -1.4,-1.2 -2.8,-1.6 -1.7,-0.3 -1.2,-0.6 h -1.4 l -3.2,0.5 -2.8,-1 -1.2,0.5 -1.8,0.2 -1.7,-0.6 -0.1,0.1 -2.1,-1.2 -1.7,-0.3 -1.8,0.1 -0.6,0.2 -0.5,0.4 -1.3,1.3 h -2.4 l -0.5,0.2 -1.1,0.6 -0.5,0.3 h -0.6 l -0.9,0.2 -0.9,0.8 -0.8,-0.3 -0.7,0.7 -0.3,0.3 -0.4,0.1 -0.8,0.7 -0.4,0.2 -0.6,-0.2 -0.5,-0.5 -0.4,-0.3 -0.6,0.3 0.3,-1.4 0.2,-0.7 1.7,-2.8 1.2,-2.5 -0.4,-1.5 0.7,-0.7 0.9,-0.9 0.6,-2.3 -0.6,-1.6 0.6,-1.3 1.1,-1.2 0.2,-1.3 0.7,-1.6 z"
           id="PRT745"
           name="Faro" />
        <path
           d="m 885.6,174.9 -0.7,0.8 -0.3,-0.1 0.4,-0.9 0.4,-0.7 0.4,-0.5 0.6,-0.5 v 0.3 l -0.2,0.8 z m 2.1,-1.4 -0.6,0.2 -0.3,-0.4 0.2,-0.7 0.3,-0.2 0.3,0.2 0.2,0.4 z m -0.7,-1.7 -0.3,0.3 0.1,-0.8 0.3,-0.8 0.2,0.3 z m 3.9,6 -0.4,-0.1 -0.4,0.2 v -0.3 l -0.4,-0.7 -0.5,-1 -0.2,-1.1 0.3,-0.8 -0.9,0.1 -0.5,-0.8 -0.2,-1.3 -0.3,-1.2 1.6,-3.6 1.1,-1.6 1.4,-1.1 0.8,-0.2 1.7,-0.1 0.7,-0.3 1.5,-1.1 v 0.3 l -0.3,0.3 -0.8,1 -1.5,0.4 0.1,0.4 0.5,0.4 -0.8,1.1 -0.2,0.6 -0.4,0.5 -0.4,0.8 -1.4,3.8 -0.6,1.1 -0.2,0.4 -0.6,0.6 v 0.7 l 0.7,0.8 0.3,0.6 z M 888,151 l 0.5,1.3 -0.1,0.7 2.8,0.8 1.6,-0.5 0.3,0.8 2,2 -0.5,0.5 -0.7,0.2 -1.2,-0.1 -0.4,0.2 -0.6,0.4 v 0.3 l 0.2,0.3 0.6,0.3 0.3,0.7 0.2,0.3 1.1,1.1 0.3,0.2 0.8,0.3 0.2,0.2 0.4,0.5 0.3,0.7 -1.8,1.3 -3.4,0.4 -0.5,0.4 -0.8,1.5 -1.9,2.8 -2.2,4.4 -1.3,1.4 -0.4,0.7 -0.2,0.8 0.1,1 v 1.7 l 0.2,1.2 -0.6,1.2 -2,0.6 -2.2,0.4 -2.6,-0.2 -0.8,0.6 -0.7,0.8 -1.5,-0.9 -1.8,-0.8 -1,-0.1 -1.7,0.2 -0.8,-0.3 0.1,-1 0.2,-0.9 -0.5,-2.2 v -1.1 l 0.2,-0.5 0.5,-0.5 1,-1.1 1.3,-4.1 -0.1,-3.1 -0.5,-1.9 0.4,-1.2 0.2,-1.3 1.5,-2.9 0.5,-1.4 0.9,-1.8 0.1,-2 0.3,-1.6 -0.3,-1.3 0.4,-0.1 h 1.5 l 1.7,-1 0.3,-0.2 0.5,0.1 0.2,-0.1 0.3,0.2 0.3,0.4 0.3,0.6 0.9,3.1 0.7,0.6 0.8,-0.6 0.8,-1 0.9,-1.6 0.9,-1 0.6,-0.4 0.5,-0.1 0.6,0.1 0.7,0.4 z"
           id="PRT746"
           name="Lisboa" />
        <path
           d="m 945.3,131.5 0.3,0.7 1.3,3.6 0.7,0.7 1.2,1.6 0.6,0.6 1.4,0.7 0.3,0.5 0.4,1.1 0.6,0.5 0.9,0.4 1.6,0.5 0.3,0.5 v 1.1 l -0.2,1.2 -0.3,0.7 -0.2,0.7 v 1.2 l 0.2,1.1 0.3,0.6 0.7,0.6 2,2.4 -0.5,0.9 -0.1,1.1 0.3,1 0.6,0.9 1,0.5 1.1,0.3 0.9,0.4 0.5,1 -0.1,0.5 -0.4,1 v 0.5 l 0.4,0.4 0.6,0.3 0.6,0.1 0.5,-0.2 1,-0.6 1,-0.1 1.1,0.3 0.9,0.6 0.6,0.6 0.6,1 0.2,1 -0.3,0.8 0.5,0.4 0.1,0.5 -0.3,0.5 -0.3,0.5 -1.4,2.6 -0.9,1.3 -0.8,0.7 0.5,1 -0.2,0.8 0.1,0.7 -0.4,0.2 -0.4,0.4 -0.5,0.5 -0.7,0.3 -1.8,0.4 -0.4,0.4 -0.2,0.4 -0.6,0.7 -0.6,0.5 -0.6,0.3 -0.6,0.5 -0.3,-0.4 v -0.5 l 0.1,-0.2 0.6,-1 0.1,-0.3 -0.1,-0.7 -0.1,-0.3 -0.5,-0.4 -0.4,-0.2 H 957 l -1.1,0.4 -0.9,0.8 -0.8,0.8 -0.6,0.2 -0.2,-0.1 h -0.7 l -0.6,-0.3 -0.3,-0.3 -0.6,-1 -0.2,-0.4 0.2,-0.8 -0.6,-0.8 -0.1,-0.7 -0.3,-1 -0.9,-0.8 v -0.6 l -0.1,-0.3 -0.1,-0.8 -0.2,-0.5 -0.7,-0.7 -1.6,-0.6 -0.2,-0.5 h -0.3 l -0.6,0.4 0.5,0.6 v 0.4 l -0.2,0.3 -0.4,0.3 -0.6,0.2 -0.8,0.2 -0.6,0.2 -0.5,0.5 -0.5,0.7 -0.2,0.2 -0.5,0.2 -0.9,-0.4 h -0.4 -0.4 l -0.4,0.2 -0.3,-0.1 -0.6,-0.4 h -0.3 l -0.7,0.8 -0.3,0.4 -1.3,0.5 -0.9,-0.1 -0.7,0.1 -0.5,-0.1 -1.1,-0.8 -1.8,-2.4 -0.4,-0.4 -0.9,0.2 -0.6,0.4 -0.3,0.3 -0.6,0.4 -0.3,0.1 -1,-0.1 -0.1,-0.1 v -0.6 -0.8 l -0.1,-0.4 -0.9,-0.9 -0.3,-0.2 -0.3,-0.1 -0.6,0.1 -0.5,0.2 -0.2,0.4 v 0.3 l -0.1,0.3 -0.2,0.1 -0.3,-0.3 -0.1,-0.7 0.1,-0.6 0.1,-0.4 v -0.2 l -0.6,-0.3 -1.1,0.1 -0.3,0.1 -0.3,0.2 -0.6,0.2 -0.8,0.7 -1.8,-0.5 -0.5,-0.5 -0.3,-0.8 -0.2,-0.5 -0.5,-0.4 -0.2,-0.4 -0.3,-0.9 -0.3,-0.4 -0.5,-0.2 -0.9,-0.5 v -0.8 l 1.2,-1.9 0.5,-0.5 2.2,-1.6 2.4,-2.2 0.9,-0.8 0.5,-1 0.5,-0.5 0.4,-0.2 0.7,0.2 0.6,-0.2 0.3,-0.2 0.3,-0.5 1,-1.1 0.5,-0.9 0.2,-0.4 0.2,-0.7 0.2,-0.3 1.9,-1.3 0.8,-1.2 v -0.3 l -0.2,-0.4 -0.6,-0.5 -1.6,-1.6 0.8,-2.3 0.9,-1.2 0.7,-0.7 0.5,-0.2 0.8,0.2 1.6,0.9 0.6,0.6 0.4,-0.2 0.8,-1 0.2,-0.2 0.9,-0.5 0.6,-0.6 0.5,-0.8 0.7,-0.7 0.7,-0.3 0.3,-0.4 0.4,-0.8 0.5,-0.8 0.6,-0.5 0.9,0.1 0.7,0.3 0.7,0.1 0.9,-0.7 0.5,-0.5 0.7,-0.5 0.8,-0.2 z"
           id="PRT747"
           name="Portalegre" />
        <path
           d="m 916.5,125.4 0.2,0.8 0.4,0.3 0.6,0.1 0.4,0.2 0.3,0.3 0.1,0.6 v 0.5 l 0.1,0.9 -0.3,0.5 v 1 l 0.2,1.8 0.3,0.7 2.3,0.9 1,0.7 h 0.8 l 1.4,-0.1 0.9,-0.3 -0.1,-0.6 -0.3,-0.9 v -0.5 l 0.2,-0.7 0.3,-0.5 0.4,-2.6 0.2,-0.4 0.9,-0.2 1.2,0.5 h 1 l 0.2,0.2 0.2,0.7 0.1,0.8 v 0.8 0.8 l 0.1,0.4 0.3,0.1 0.4,0.2 h 0.5 l 0.8,0.3 0.6,0.5 0.7,0.5 0.8,0.9 0.9,1.3 0.1,0.4 0.3,0.9 0.4,0.5 -0.9,0.5 -0.2,0.2 -0.8,1 -0.4,0.2 -0.6,-0.6 -1.6,-0.9 -0.8,-0.2 -0.5,0.2 -0.7,0.7 -0.9,1.2 -0.8,2.3 1.6,1.6 0.6,0.5 0.2,0.4 v 0.3 l -0.8,1.2 -1.9,1.3 -0.2,0.3 -0.2,0.7 -0.2,0.4 -0.5,0.9 -1,1.1 -0.3,0.5 -0.3,0.2 -0.6,0.2 -0.7,-0.2 -0.4,0.2 -0.5,0.5 -0.5,1 -0.9,0.8 -2.4,2.2 -2.2,1.6 -0.5,0.5 -1.2,1.9 v 0.8 l 0.9,0.5 0.5,0.2 0.3,0.4 0.3,0.9 0.2,0.4 0.5,0.4 0.2,0.5 0.3,0.8 0.5,0.5 1.8,0.5 -0.4,0.7 -0.2,0.2 -0.8,0.1 -0.1,0.3 -0.2,0.4 v 0.9 l -0.1,0.5 -0.1,0.5 -0.5,0.6 -0.1,0.3 v 0.4 l 0.6,0.5 2.1,0.9 0.5,0.1 0.1,0.1 0.2,0.4 -0.2,0.9 v 0.4 l 0.3,0.4 0.6,0.7 0.7,0.2 0.2,0.3 0.1,0.5 -0.2,0.7 -0.7,0.6 -0.7,-0.3 -0.1,-0.3 -0.3,-0.6 -0.2,-0.1 h -0.4 l -0.3,-0.8 -0.3,-0.3 -0.4,-0.2 -1.2,-0.2 -0.4,-0.3 -1.1,-1.1 -0.2,-0.2 h -0.3 l -0.2,0.5 -0.3,0.1 -0.6,-0.1 -0.4,0.2 h -0.6 l -0.7,-0.3 h -0.2 l -0.2,0.6 -0.4,0.4 -0.5,0.2 h -0.4 l -0.4,0.1 -0.9,0.8 -0.4,0.3 -1.7,0.4 -1.9,1.6 -1.1,-0.2 h -0.3 l -0.5,-0.1 -0.5,-0.5 v -0.5 -0.4 l 0.1,-1.4 -0.2,-0.1 -0.7,0.3 -0.7,0.4 -1.1,-0.4 -1,-0.6 -0.3,0.1 -1.1,2.3 -0.5,1.4 -0.1,0.4 -0.6,0.8 -0.7,0.2 h -0.3 l -1.1,-0.4 -0.4,-0.5 -0.3,-0.2 h -0.4 l -0.7,0.1 -0.4,0.3 -0.8,0.3 -0.5,0.1 -0.3,-0.2 -0.4,-0.3 -0.2,-0.8 0.1,-0.6 -0.3,-1.2 -0.3,-0.6 -0.7,-0.8 v -0.7 l 0.6,-0.6 0.2,-0.4 0.6,-1.1 1.4,-3.8 0.4,-0.8 0.4,-0.5 0.2,-0.6 0.8,-1.1 -0.5,-0.4 -0.1,-0.4 1.5,-0.4 0.8,-1 0.3,-0.3 v -0.3 l 0.6,-0.7 0.4,-0.7 -1.1,0.8 -0.3,-0.7 -0.4,-0.5 -0.2,-0.2 -0.8,-0.3 -0.3,-0.2 -1.1,-1.1 -0.2,-0.3 -0.3,-0.7 -0.6,-0.3 -0.2,-0.3 v -0.3 l 0.6,-0.4 0.4,-0.2 1.2,0.1 0.7,-0.2 0.5,-0.5 -2,-2 -0.3,-0.8 -1.6,0.5 -2.8,-0.8 0.1,-0.7 -0.5,-1.3 -0.1,-1.6 -0.2,-1 0.2,-0.6 0.8,-1.5 0.8,-0.2 0.3,-0.2 0.4,-0.5 1.3,-2.6 0.5,-0.6 1.2,-0.5 2.6,-0.2 1.9,0.2 0.6,-0.4 0.1,-0.6 -0.3,-0.7 -0.1,-0.4 0.1,-0.4 0.1,-0.2 h 0.3 l 0.4,0.2 0.4,-0.1 h 0.3 l 1,-1.4 0.3,-0.4 -0.5,-1.4 -0.1,-0.9 -0.3,-1.6 0.8,-0.7 0.7,-0.5 0.3,-0.3 0.2,-0.5 -0.2,-0.8 -0.3,-0.4 -0.6,-0.5 -0.1,-0.4 v -0.6 l -0.1,-1 v -0.4 l 0.4,-0.8 1.8,-0.8 0.8,0.2 0.4,-0.1 0.8,-0.3 1.9,-1.5 0.6,-0.1 0.3,-0.1 0.6,-0.4 0.6,-0.2 0.5,2.2 0.1,0.6 0.3,1.2 v 0.4 l 0.2,0.6 0.7,-0.3 1.7,-0.6 0.5,-0.1 0.8,-0.4 0.8,0.1 0.2,-0.1 -0.1,-1 -0.1,-0.4 v -0.2 l 0.3,0.1 z"
           id="PRT748"
           name="Santarém" />
        <path
           d="m 928.6,42.8 -0.2,0.8 -0.4,0.4 -0.5,0.4 -0.3,0.4 -0.3,0.3 -0.3,0.1 h -0.4 l -0.5,-0.3 -0.8,-0.5 -0.5,0.1 -1.2,-0.6 -1.5,-1.1 0.1,-0.4 -0.1,-0.4 -0.8,-0.8 -2,-0.7 -0.6,0.9 -0.8,0.6 -1.2,0.6 H 916 l -1,0.4 h -0.2 l -0.6,-0.4 -0.3,-0.1 -1.6,0.2 -1.2,0.3 -1,-0.1 -0.6,-0.4 H 909 l -0.7,0.2 -0.7,0.4 -0.6,0.6 -0.7,0.1 h -2.2 l -0.5,0.1 -0.3,-0.1 -0.2,-0.4 -0.3,-1.1 0.3,-0.4 0.6,-0.3 0.2,-0.3 -0.2,-0.3 -0.4,-0.3 -0.4,-0.2 -0.6,-0.3 -1.2,-1.3 -0.4,-0.1 -1,-0.1 -1.1,-0.5 -0.9,-0.5 h -0.9 v -0.1 l -0.5,-1.2 -0.1,-1.1 -0.1,-0.7 L 896,33.7 895.4,32 895.3,30.9 895,30 v -0.3 l 1,0.1 h 0.3 l 2.9,-1.1 2.1,-0.1 0.3,-0.1 0.7,-0.6 0.3,0.2 1.2,0.5 0.8,0.1 0.4,0.2 0.6,0.2 0.7,-1.3 -0.1,-0.6 0.2,-0.6 0.4,-0.4 0.2,-0.8 0.1,-0.8 0.2,-0.8 0.3,-0.3 0.5,-0.2 0.7,0.1 0.6,-0.3 0.7,-0.6 0.3,-0.2 0.6,-0.2 0.6,-0.2 3.5,-0.1 0.9,-0.4 3.8,-2.1 h 0.5 0.2 v 0.1 l 3.4,0.2 1.7,-0.5 0.1,0.1 -0.1,0.6 -0.4,0.7 -0.2,1.5 -0.4,0.7 -0.4,1.1 -0.4,0.8 -0.9,1.1 h 0.6 l 0.5,-0.1 0.5,-0.1 h 0.7 0.3 l 0.7,-0.3 0.5,0.1 1.1,0.7 0.2,0.1 0.1,0.4 -0.3,1.1 -0.1,2.4 0.8,0.4 0.4,0.1 0.8,0.3 1.5,0.3 0.5,0.1 1.2,-0.4 0.8,-0.9 0.4,0.2 0.3,0.2 0.6,1.2 -0.1,0.7 -1.6,2.4 -0.4,0.5 -0.8,0.3 -0.1,0.2 -0.2,0.6 -0.4,0.4 -0.4,-0.1 -0.4,0.2 -0.3,0.5 -0.4,1.3 0.2,0.4 -0.2,0.6 -0.6,1 -0.1,0.4 -0.3,0.2 -0.1,0.1 0.1,0.7 z"
           id="PRT749"
           name="Braga" />
        <path
           d="m 970.3,59.9 -0.7,-0.2 -1.7,-0.1 -3.5,-1.8 -0.4,-0.5 -0.3,-0.7 -0.2,-0.7 v -0.5 l 0.2,-0.5 v -0.4 l -0.7,-0.2 -0.2,-0.1 -0.4,-0.5 0.2,-0.3 0.3,-1.1 -0.4,0.2 -1.5,1 -0.4,0.6 h -0.8 l -1.3,-0.4 -3.1,0.3 -1,0.1 -1.3,-0.5 -0.5,-0.4 -1.2,-1.8 -0.6,-0.4 h -0.6 l 0.3,-1 0.2,-0.3 0.4,-0.1 0.5,-0.1 0.2,-0.1 -0.1,-0.6 v -0.5 l 0.2,-0.7 0.3,-0.5 0.4,-0.4 0.1,-0.2 -0.1,-0.3 0.1,-0.6 0.7,-0.7 1.4,-0.5 -1,-0.6 -0.3,-0.4 -0.3,-0.7 -0.2,-1.1 V 39 l 1.3,-1 0.3,-0.1 0.4,-0.2 0.3,-0.5 0.3,-0.8 0.5,-0.9 0.4,-0.5 0.4,-0.1 0.3,-0.1 0.7,-0.2 0.1,-0.3 -0.1,-0.3 -0.1,-0.4 -0.4,-0.7 -0.2,-0.4 v -0.7 l 0.2,-1.4 1.2,-4.5 1,-2.1 0.4,-0.3 0.2,-0.1 0.2,-0.3 0.1,-0.3 v -1.2 l -0.7,-1 -0.4,-1 -0.1,-0.5 -0.1,-1 0.1,-1 0.1,-0.6 -0.3,-1.3 0.4,-0.7 0.1,-0.8 -0.2,-1.8 v -0.7 l 0.3,-0.3 0.6,-0.5 0.7,-0.4 0.6,-0.1 1.3,0.8 1.2,1.1 1.3,0.5 1.4,-0.6 0.9,-0.7 0.9,0.5 1,0.8 1.1,0.2 2.5,-0.2 0.9,-0.6 0.3,-1.6 1.2,0.2 1.4,2.3 1.2,0.3 2.9,-0.1 1.3,-0.4 0.5,-1.1 1,0.4 0.5,0.6 0.2,0.9 -0.3,2.3 0.3,0.4 0.7,0.1 1,0.3 -0.4,1 -1,4.4 -0.2,0.5 -0.2,0.5 -0.3,0.5 0.1,0.4 0.3,0.5 0.2,0.5 0.1,1 0.2,1 0.5,0.9 1.2,0.4 0.4,-0.1 0.6,-0.3 0.5,-0.4 0.6,-0.6 h 0.5 l 3.2,0.7 2,0.7 1.8,1.2 1.6,1.8 0.6,0.8 0.4,0.5 -1.9,2.8 -1,1.1 -0.3,0.5 V 37 l 0.2,0.4 -0.1,0.4 -1.5,2.4 v 0.5 l -1.2,0.1 -0.6,0.2 -0.4,0.4 v 0.7 l -0.1,0.3 -0.2,0.1 -0.4,-0.1 h -0.2 l -1.3,2.1 -1.2,1.3 -1.3,1 -2.4,1 -0.3,0.3 h -2.6 l -0.7,0.2 -0.5,0.5 -1.4,2.1 -0.3,0.8 -0.2,0.4 -1.4,1.3 -0.6,0.6 -0.1,0.4 0.1,1.3 -0.3,1 -1.6,2.3 -0.6,0.6 -1,0.1 -2.5,-0.2 z"
           id="PRT750"
           name="Bragança" />
        <path
           d="m 969.7,101.5 -0.5,0.1 -1.7,1.1 -0.7,0.3 -0.4,0.5 -0.4,1.2 -0.3,0.6 0.3,0.8 0.3,1.8 0.5,0.7 0.5,0.1 1,0.2 0.4,0.1 0.5,0.4 0.5,0.9 0.9,1.1 1.6,2.9 -0.7,1.2 -0.2,0.5 0.1,0.6 -0.2,0.4 -0.2,1.3 -0.1,0.2 -0.4,0.3 -0.1,0.2 v 0.3 l 0.1,0.6 -0.1,0.7 v 0.9 l -0.1,0.5 -1,1.5 -0.4,0.2 -0.9,0.4 -0.3,0.2 -0.3,0.7 v 0.6 l 0.2,0.5 0.1,0.4 -0.2,0.5 -0.4,0.8 -0.2,0.5 v 0.5 l 0.1,0.4 v 0.3 l -0.4,1.2 -0.6,0.2 -5.9,0.7 h -1.2 l -0.9,-0.6 -0.7,0.3 -1.5,-0.1 -0.8,0.2 -0.6,0.2 -0.6,0.2 -8.6,-0.4 0.1,0.1 -0.4,-0.1 -0.8,0.2 -0.7,0.5 -0.5,0.5 -0.9,0.7 -0.7,-0.1 -0.7,-0.3 -0.9,-0.1 -0.6,0.5 -0.5,0.8 -0.4,0.8 -0.3,0.4 -0.7,0.3 -0.7,0.7 -0.5,0.8 -0.6,0.6 -0.4,-0.5 -0.3,-0.9 -0.1,-0.4 -0.9,-1.3 -0.8,-0.9 -0.7,-0.5 -0.6,-0.5 -0.8,-0.3 h -0.5 l -0.4,-0.2 -0.3,-0.1 -0.1,-0.4 v -0.8 -0.8 l -0.1,-0.8 -0.2,-0.7 -0.2,-0.2 h -1 l -1.2,-0.5 -0.9,0.2 -0.2,0.4 -0.4,2.6 -0.3,0.5 -0.2,0.7 v 0.5 l 0.3,0.9 0.1,0.6 -0.9,0.3 -1.4,0.1 h -0.8 l -1,-0.7 -2.3,-0.9 -0.3,-0.7 -0.2,-1.8 v -1 l 0.3,-0.5 -0.1,-0.9 v -0.5 l -0.1,-0.6 -0.3,-0.3 -0.4,-0.2 -0.6,-0.1 -0.4,-0.3 -0.2,-0.8 -0.2,-0.5 v -0.3 l 0.3,-0.5 0.2,-0.2 v -0.5 l 0.5,-0.6 1.7,-0.5 0.4,0.1 0.3,-0.3 0.3,-0.4 0.3,-0.4 0.7,-0.3 0.4,-0.2 0.4,-0.4 0.8,-1.5 0.6,-0.7 0.1,-0.3 0.5,-0.3 0.5,-0.1 0.5,-0.5 0.9,-0.2 h 0.6 l 0.2,-0.2 0.1,-0.5 0.8,-0.2 0.2,-0.2 0.5,-0.2 h 0.3 l 0.4,0.2 0.2,-0.1 0.5,-0.8 0.3,-0.2 h 0.3 l 0.8,-0.1 0.4,-0.2 V 114 l -0.1,-0.7 0.1,-0.4 0.5,-0.6 0.9,-0.4 0.6,-0.1 h 0.5 l 0.7,0.2 0.8,0.7 0.1,-1.1 -0.1,-0.8 0.2,-0.3 0.2,-0.2 0.2,0.1 0.2,0.3 0.3,0.1 h 0.4 l 0.8,-0.6 0.3,-0.3 0.2,-0.3 v -0.3 -0.7 l -0.2,-0.5 -1.1,-0.8 -0.7,-0.8 -0.4,-0.3 -0.2,-0.4 -0.2,-0.6 0.1,-0.5 0.9,-2 0.7,-0.3 0.7,-0.1 0.5,-0.2 1.5,-1.2 1.1,-0.4 1,-0.7 0.9,-0.9 0.8,-1.1 0.9,0.3 1.4,-0.2 0.4,-0.4 0.2,-0.3 0.3,-0.7 0.1,-0.4 0.5,-0.9 2.1,-2 1.5,1.3 0.9,0.3 h 0.5 l 1.3,-0.4 0.8,-1 0.8,-0.1 0.6,-0.1 h 0.3 l 0.5,0.2 -0.3,3.1 -0.5,1.4 -0.7,0.8 -0.4,0.5 -0.1,0.4 0.1,0.3 0.4,0.3 0.6,0.3 1.9,0.4 1.8,-0.7 h 1.9 l 0.5,-0.2 0.3,-0.3 0.1,-0.4 0.1,-0.4 0.3,-0.4 0.4,-0.4 0.3,0.1 0.2,0.3 0.5,1 0.4,0.4 0.9,0.1 h 0.9 l 0.7,-0.2 0.6,0.1 1,0.5 0.6,0.4 z"
           id="PRT751"
           name="Castelo Branco" />
        <path
           d="m 894.2,107.1 0.5,0.2 1.2,0.7 -0.8,0.4 -0.4,-0.1 -0.6,-0.5 -0.1,-0.6 z m 19.5,-11.7 0.4,0.2 0.4,0.3 1.2,0.3 1,0.7 0.6,0.6 0.6,0.3 0.3,0.3 h 0.3 l 0.2,-0.4 0.1,-0.5 0.2,-0.1 1.7,-0.3 2.3,0.3 3,-2.2 2.2,-0.9 1.7,-1.3 0.7,-0.3 1,-1.5 1.3,-1.1 0.5,-0.5 0.4,-0.3 0.8,-0.2 0.4,1.2 0.3,0.2 0.2,0.4 v 0.3 l -0.1,0.5 -0.3,0.4 -0.6,0.3 -0.3,0.2 -0.1,0.4 0.2,0.5 0.4,0.2 0.7,0.2 0.2,0.2 v 0.5 l 0.3,1.9 0.3,0.4 0.5,0.5 0.2,0.3 -0.1,0.3 -0.9,0.7 -0.4,0.4 -0.3,0.5 -0.2,0.8 -0.4,1.1 1.1,0.6 0.6,0.9 -0.9,2 -0.1,0.5 0.2,0.6 0.2,0.4 0.4,0.3 0.7,0.8 1.1,0.8 0.2,0.5 v 0.7 0.3 l -0.2,0.3 -0.3,0.3 -0.8,0.6 h -0.4 l -0.3,-0.1 -0.2,-0.3 -0.2,-0.1 -0.2,0.2 -0.2,0.3 0.1,0.8 -0.1,1.1 -0.8,-0.7 -0.7,-0.2 h -0.5 l -0.6,0.1 -0.9,0.4 -0.5,0.6 -0.1,0.4 0.1,0.7 v 0.3 l -0.4,0.2 -0.8,0.1 h -0.3 l -0.3,0.2 -0.5,0.8 -0.2,0.1 -0.4,-0.2 h -0.3 l -0.5,0.2 -0.2,0.2 -0.8,0.2 -0.1,0.5 -0.2,0.2 h -0.6 l -0.9,0.2 -0.5,0.5 -0.5,0.1 -0.5,0.3 -0.1,0.3 -0.6,0.7 0.1,-0.7 -0.2,-0.5 0.2,-0.5 0.2,-0.3 0.4,-0.3 -1.6,-2.7 -0.2,-0.9 0.3,-1.5 -0.4,-0.7 -0.7,-0.5 -1.3,1.6 -1.1,-0.4 -1.7,1.5 -0.7,1 0.1,0.6 0.7,0.7 0.1,0.3 -0.1,0.4 -0.2,0.3 h -0.3 l -0.7,-0.3 -0.4,0.1 -1.4,1.6 -1.6,0.6 -0.6,-0.1 0.5,-0.4 0.2,-0.3 0.1,-0.5 -0.2,-0.6 -0.4,-1 -0.5,-1.2 -0.3,-0.2 h -0.4 v 0.2 h -0.8 l -1.3,1.1 -1.1,0.6 -0.7,0.9 -0.3,0.3 -0.3,-0.5 -0.1,-0.4 v -0.8 l -0.1,-0.5 -0.2,-1.2 -0.3,-0.3 -0.3,-0.1 h -0.5 l -0.6,0.4 -0.6,1 -0.3,0.2 -0.4,0.1 -0.4,-0.2 -0.4,-0.6 -0.7,-0.6 -0.4,-0.3 -0.9,-0.2 -0.8,-0.1 -2,-0.2 -1,0.5 -0.4,0.3 -0.4,0.1 -1.3,-0.3 -0.6,-0.3 -0.3,-0.2 -1.3,-0.6 1.4,-4 0.6,-0.8 0.4,0.7 0.7,0.3 1.6,0.1 v -0.4 l -0.7,-0.6 -0.6,-0.4 -0.7,-0.3 -1.8,-0.2 -0.7,-0.5 -0.4,-0.8 v -1.1 l 0.5,-1.4 1.2,-2.5 2.6,-10.4 0.5,-2.5 v 0.1 l 4.4,4.5 1.4,0.2 0.3,-0.6 0.1,-0.8 0.9,-1.4 1.5,1.1 -0.2,1.3 v 0.5 l 0.1,0.9 0.3,0.4 0.3,0.1 0.4,-0.2 0.6,-0.4 0.7,-0.3 h 0.4 l 0.2,1 0.5,0.9 v 0.4 0.3 l -0.2,0.8 -0.1,0.1 -0.5,0.5 -0.2,0.3 -0.3,0.8 -0.1,0.5 v 0.5 0.3 l 0.3,0.4 2.3,0.2 0.7,-0.6 0.2,-0.5 0.9,-1.1 0.2,-0.4 0.3,-0.4 0.3,-0.1 h 0.9 l 0.4,-0.6 v -0.4 z"
           id="PRT752"
           name="Coimbra" />
        <path
           d="m 970.3,59.9 -0.2,1 -0.4,0.7 0.1,0.6 0.4,0.6 1.2,1.4 0.6,0.9 0.8,2.1 0.4,1.2 0.3,0.4 0.6,0.2 0.4,0.3 0.2,0.7 -0.1,0.6 -0.7,0.2 -0.1,1.4 0.2,0.9 -0.1,0.5 -0.1,0.6 v 1 l 0.1,0.7 0.5,1.7 0.3,1.8 0.1,0.9 V 81 l -0.3,0.9 -0.9,1.7 -0.2,0.8 v 0.9 l 0.4,0.5 0.4,0.5 0.4,0.7 0.3,0.9 -0.1,0.7 -1,1.3 -0.7,1.8 0.2,1.7 0.9,1.5 1.4,1.3 -0.7,1.3 -0.4,0.3 -1.7,1.3 -0.2,0.3 -0.2,0.4 v 0.9 l -0.1,0.3 -0.8,0.5 h -0.7 -0.8 -0.3 l -0.6,-0.7 -0.6,-0.4 -1,-0.5 -0.6,-0.1 -0.7,0.2 h -0.9 l -0.9,-0.1 -0.4,-0.4 -0.5,-1 -0.2,-0.3 -0.3,-0.1 -0.4,0.4 -0.3,0.4 -0.1,0.4 -0.1,0.4 -0.3,0.3 -0.5,0.2 h -1.9 l -1.8,0.7 -1.9,-0.4 -0.6,-0.3 -0.4,-0.3 -0.1,-0.3 0.1,-0.4 0.4,-0.5 0.7,-0.8 0.5,-1.4 0.3,-3.1 -0.5,-0.2 h -0.3 l -0.6,0.1 -0.8,0.1 -0.8,1 -1.3,0.4 h -0.5 l -0.9,-0.3 -1.5,-1.3 -2.1,2 -0.5,0.9 -0.1,0.4 -0.3,0.7 -0.2,0.3 -0.4,0.4 -1.4,0.2 -0.9,-0.3 -0.8,1.1 -0.9,0.9 -1,0.7 -1.1,0.4 -1.5,1.2 -0.5,0.2 -0.7,0.1 -0.7,0.3 -0.6,-0.9 -1.1,-0.6 0.4,-1.1 0.2,-0.8 0.3,-0.5 0.4,-0.4 0.9,-0.7 0.1,-0.3 -0.2,-0.3 -0.5,-0.5 -0.3,-0.4 -0.3,-1.9 v -0.5 l -0.2,-0.2 -0.7,-0.2 -0.4,-0.2 -0.2,-0.5 0.1,-0.4 0.3,-0.2 0.6,-0.3 0.3,-0.4 0.1,-0.5 v -0.3 l -0.2,-0.4 -0.3,-0.2 -0.4,-1.2 0.4,-0.4 1.2,-0.2 0.4,-0.1 1,-0.8 1.2,-0.4 1.3,-0.9 1.7,-0.6 2.6,-0.5 -0.1,-1.1 0.9,-2.9 0.5,-0.6 0.2,-1.3 -0.7,-1 -0.8,-0.5 -0.5,-0.8 0.5,-0.6 0.1,-0.3 v -0.3 l -0.3,-0.7 -1,-0.8 -0.4,-0.4 v -0.4 l 0.1,-0.4 0.5,-0.6 0.4,-0.8 0.5,-1.4 0.4,-0.6 0.5,-0.2 1,0.1 0.4,0.1 0.6,0.5 1.8,2 h 0.7 l 0.4,-0.6 0.9,-2.1 v -0.5 l -0.1,-0.6 -0.2,-0.3 -0.1,-1 0.4,-0.3 1.6,0.4 1.2,-1.2 0.4,-0.9 v -0.6 l -0.1,-0.4 -0.2,-0.3 -0.7,-0.4 -0.3,-0.3 -0.3,-0.6 -0.1,-0.3 0.2,-0.2 h 0.9 l 0.5,-0.3 -0.2,-1.4 0.2,-1 0.3,-1.6 1,-3.4 3.1,-0.3 1.3,0.4 h 0.8 l 0.4,-0.6 1.5,-1 0.4,-0.2 -0.3,1.1 -0.2,0.3 0.4,0.5 0.2,0.1 0.7,0.2 v 0.4 l -0.2,0.5 v 0.5 l 0.2,0.7 0.3,0.7 0.4,0.5 3.5,1.8 1.7,0.1 z"
           id="PRT753"
           name="Guarda" />
        <path
           d="m 928.6,42.8 0.6,0.9 v 0.4 l 0.1,0.5 0.2,0.4 0.6,0.4 1.1,0.8 -0.2,0.7 0.2,0.8 0.7,1.2 0.7,0.5 -0.6,2.1 -0.1,1.3 -0.2,1.2 -1.7,1.1 -4.9,1.7 -1.1,0.1 -4,-0.3 -1.3,0.3 -2.6,1.1 -0.2,0.6 -0.1,0.1 -2,1.4 -0.8,-0.3 -1,0.5 v 0.6 l 0.2,0.3 v 0.4 l -0.1,0.2 h -0.3 l -0.7,-0.6 -0.5,-0.9 -0.8,-0.8 -0.7,0.8 -0.2,0.3 -0.3,0.7 -0.3,0.2 h -0.4 l -0.5,-0.3 -0.4,-0.3 -0.3,-0.2 h -0.5 l -0.6,0.5 -1.3,0.4 -0.6,-0.4 -1.8,0.2 -0.4,0.1 v -0.7 l -0.4,-3.5 v -1.9 l 0.7,-0.7 v -0.4 l -1.5,-0.3 -0.8,-1.5 -0.5,-1.8 -0.7,-1.5 0.2,-0.7 -0.1,-0.6 -0.2,-0.6 -0.2,-0.6 v -1.6 l -0.2,-0.6 -0.3,-0.1 -0.3,-1.1 -0.6,-1 -0.2,-0.7 v -0.7 l -0.1,-1.5 0.5,-1.7 h 0.9 l 0.9,0.5 1.1,0.5 1,0.1 0.4,0.1 1.2,1.3 0.6,0.3 0.4,0.2 0.4,0.3 0.2,0.3 -0.2,0.3 -0.6,0.3 -0.3,0.4 0.3,1.1 0.2,0.4 0.3,0.1 0.5,-0.1 h 2.2 l 0.7,-0.1 0.6,-0.6 0.7,-0.4 0.7,-0.2 h 0.5 l 0.6,0.4 1,0.1 1.2,-0.3 1.6,-0.2 0.3,0.1 0.6,0.4 h 0.2 l 1,-0.4 h 0.3 l 1.2,-0.6 0.8,-0.6 0.6,-0.9 2,0.7 0.8,0.8 0.1,0.4 -0.1,0.4 1.5,1.1 1.2,0.6 0.5,-0.1 0.8,0.5 0.5,0.3 h 0.4 l 0.3,-0.1 0.3,-0.3 0.3,-0.4 0.5,-0.4 0.4,-0.4 z"
           id="PRT754"
           name="Porto" />
        <path
           d="m 955.4,54 -1,3.4 -0.3,1.6 -0.2,1 0.2,1.4 -0.5,0.3 h -0.9 l -0.2,0.2 0.1,0.3 0.3,0.6 0.3,0.3 0.7,0.4 0.2,0.3 0.1,0.4 v 0.6 l -0.4,0.9 -1.2,1.2 -1.6,-0.4 -0.4,0.3 0.1,1 0.2,0.3 0.1,0.6 v 0.5 l -0.9,2.1 -0.4,0.6 H 949 l -1.8,-2 -0.6,-0.5 -0.4,-0.1 -1,-0.1 -0.5,0.2 -0.4,0.6 -0.5,1.4 -0.4,0.8 -0.5,0.6 -0.1,0.4 v 0.4 l 0.4,0.4 1,0.8 0.3,0.7 v 0.3 l -0.1,0.3 -0.5,0.6 0.5,0.8 0.8,0.5 0.7,1 -0.2,1.3 -0.5,0.6 -0.9,2.9 0.1,1.1 -2.6,0.5 -1.7,0.6 -1.3,0.9 -1.2,0.4 -1,0.8 -0.4,0.1 -1.2,0.2 -0.4,0.4 -0.8,0.2 -0.4,0.3 -0.5,0.5 -1.3,1.1 -1,1.5 -0.7,0.3 -1.7,1.3 -2.2,0.9 -3,2.2 -2.3,-0.3 -1.7,0.3 -0.2,0.1 -0.1,0.5 -0.2,0.4 h -0.3 l -0.3,-0.3 -0.6,-0.3 -0.6,-0.6 -1,-0.7 -1.2,-0.3 -0.4,-0.3 -0.4,-0.2 -0.2,-1.6 1.1,-1.8 0.2,-0.4 v -0.7 l -0.4,-0.7 v -0.4 -0.3 l 0.9,-0.7 2.2,-0.9 -0.4,-0.8 -0.6,-0.5 -0.2,-0.4 -0.2,-0.9 -0.5,-1.2 v -0.3 l 0.2,-0.4 0.3,-0.3 1.6,-0.6 -0.7,-0.6 -0.7,-0.3 -0.2,-0.1 -0.2,-0.7 -0.1,-1.5 -0.1,-0.4 -0.2,-0.4 -0.6,-0.6 -0.2,-0.3 v -0.4 -0.4 l 0.3,-0.7 1,-0.8 0.9,-1 0.8,-1.7 0.4,-0.6 v -0.3 l -0.4,-1.7 1.2,-0.1 0.3,0.2 h 0.5 l 0.5,-0.1 0.7,-0.3 h 0.4 l 0.4,0.1 0.6,0.4 h 0.4 l 0.3,-0.1 0.2,-0.3 v -0.6 l -0.3,-1 -0.2,-1.4 -0.2,-0.7 v -0.3 l 0.1,-0.6 0.2,-0.6 1.3,-1.8 V 62.5 62.1 L 924,61.9 h -0.3 l -0.5,0.4 -0.2,0.3 -0.3,0.7 -0.6,0.1 h -0.4 l -3,-1.5 v -1.1 -0.4 l -0.2,-0.8 -2.4,-1.6 2.6,-1.1 1.3,-0.3 4,0.3 1.1,-0.1 4.9,-1.7 1.7,-1.1 2.1,-1.3 0.8,-0.1 0.6,0.2 0.9,0.9 0.5,0.4 0.7,0.2 0.7,0.1 0.8,-0.2 0.7,-0.2 1.1,-0.8 0.6,-0.3 0.8,-0.1 1.7,0.2 1.8,-0.2 4.7,-1.8 h 0.6 l 0.6,0.4 1.2,1.8 0.5,0.4 1.3,0.5 z"
           id="PRT755"
           name="Viseu" />
        <path
           d="m 959.1,15.2 0.3,1.3 -0.1,0.6 -0.1,1 0.1,1 0.1,0.5 0.4,1 0.7,1 v 1.2 l -0.1,0.3 -0.2,0.3 -0.2,0.1 -0.4,0.3 -1,2.1 -1.2,4.5 -0.2,1.4 v 0.7 l 0.2,0.4 0.4,0.7 0.1,0.4 0.1,0.3 -0.1,0.3 -0.7,0.2 -0.3,0.1 -0.4,0.1 -0.4,0.5 -0.5,0.9 -0.3,0.8 -0.3,0.5 -0.4,0.2 -0.3,0.1 -1.3,1 v 2.6 l 0.2,1.1 0.3,0.7 0.3,0.4 1,0.6 -1.4,0.5 -0.7,0.7 -0.1,0.6 0.1,0.3 -0.1,0.2 -0.4,0.4 -0.3,0.5 -0.2,0.7 v 0.5 l 0.1,0.6 -0.2,0.1 -0.5,0.1 -0.4,0.1 -0.2,0.3 -0.3,1 -4.7,1.8 -1.8,0.2 -1.7,-0.2 -0.8,0.1 -0.6,0.3 -1.1,0.8 -0.7,0.2 -0.8,0.2 -0.7,-0.1 -0.7,-0.2 -0.5,-0.4 -0.9,-0.9 -0.6,-0.2 -0.8,0.1 -2.1,1.3 0.2,-1.2 0.1,-1.3 0.6,-2.1 -0.7,-0.5 -0.7,-1.2 -0.2,-0.8 0.2,-0.7 -1.1,-0.8 -0.6,-0.4 -0.2,-0.4 -0.1,-0.5 v -0.4 l -0.6,-0.9 0.3,-0.9 -0.1,-0.7 0.1,-0.1 0.3,-0.2 0.1,-0.4 0.6,-1 0.2,-0.6 -0.2,-0.4 0.4,-1.3 0.3,-0.5 0.4,-0.2 0.4,0.1 0.4,-0.4 0.2,-0.6 0.1,-0.2 0.8,-0.3 0.4,-0.5 1.6,-2.4 0.1,-0.7 -0.6,-1.2 -0.3,-0.2 -0.4,-0.2 -0.8,0.9 -1.2,0.4 -0.5,-0.1 -1.5,-0.3 -0.8,-0.3 -0.4,-0.1 -0.8,-0.4 0.1,-2.4 0.3,-1.1 -0.1,-0.4 -0.2,-0.1 -1.1,-0.7 -0.5,-0.1 -0.7,0.3 h -0.3 -0.7 l -0.5,0.1 -0.5,0.1 h -0.6 l 0.9,-1.1 0.4,-0.8 0.4,-1.1 0.4,-0.7 0.2,-1.5 0.4,-0.7 0.1,-0.6 -0.1,-0.1 h 0.1 l 1.3,-1.4 0.4,-0.6 0.5,-0.6 0.5,-0.2 0.7,0.1 h 0.7 l 0.4,-0.7 0.2,-0.9 0.2,-0.6 0.7,-0.3 0.2,1.4 0.2,1.5 h 1.3 l 0.3,-0.3 0.3,-0.6 0.4,-0.1 h 1.1 l 2.4,-0.6 1.2,-0.6 0.6,0.2 1.1,0.8 0.7,0.3 2.1,0.1 -0.6,1.7 v 0.5 l 0.7,0.4 h 0.7 l 0.8,-0.1 0.8,-0.3 0.6,-0.4 0.3,-0.4 0.1,-0.7 0.3,-0.2 h 0.3 l 0.6,0.4 h 0.4 l 0.5,0.2 0.5,0.7 0.4,1 0.2,0.8 0.5,-0.4 1,-1.1 0.5,-0.4 0.6,-0.1 h 1.5 l 0.7,-0.1 2.8,-1 1.3,-0.8 z"
           id="PRT756"
           name="Vila Real" />
      </g>
    </g>
  </g>
  <circle
     cx="883.90002"
     cy="156.39999"
     id="0"
     r="0" />
  <circle
     cx="874"
     cy="164.39999"
     id="1"
     r="0" />
  <circle
     cx="167.5"
     cy="184.3"
     id="2"
     r="0" />
</svg>
